<svg version="1.1" id="Layer_1" xmlns="http://www.w3.org/2000/svg" xmlns:xlink="http://www.w3.org/1999/xlink" x="0px" y="0px"
	 width="100%" viewBox="0 0 822 870" enable-background="new 0 0 822 870" xml:space="preserve">
<path fill="#FFFFFF" opacity="1.000000" stroke="none" 
	d="
M451.000000,871.000000 
	C300.666718,871.000000 150.833420,871.000000 1.000100,871.000000 
	C1.000067,581.000122 1.000067,291.000275 1.000033,1.000295 
	C274.999786,1.000197 548.999573,1.000197 822.999512,1.000098 
	C822.999695,290.999695 822.999695,580.999390 822.999878,870.999512 
	C699.166687,871.000000 575.333313,871.000000 451.000000,871.000000 
M194.783539,823.722717 
	C193.193359,823.480103 191.603195,823.237488 189.694321,822.946289 
	C187.755371,827.475342 185.842270,831.944031 183.892715,836.497864 
	C193.267181,840.569336 202.097839,844.404602 210.281509,848.738708 
	C181.200836,848.784424 152.120148,848.830200 122.944496,848.203064 
	C123.191765,846.741455 122.992210,844.959900 123.767929,843.876770 
	C126.367065,840.247314 129.394745,836.928650 132.109543,833.377319 
	C136.022995,828.258057 134.412552,817.144531 129.661819,812.904114 
	C128.417953,811.793823 127.336411,808.862366 127.938896,807.620361 
	C130.013657,803.343201 127.800354,800.848694 124.967949,798.663269 
	C118.337875,793.547546 108.439056,795.555420 105.041870,803.257874 
	C100.974281,812.480469 97.598770,822.035522 94.441429,831.617188 
	C93.391678,834.802856 93.941109,838.515564 93.759445,841.987305 
	C86.028465,826.820312 82.040009,810.702026 81.256172,794.148987 
	C80.639961,781.136108 81.361900,767.882446 83.167725,754.970398 
	C86.607964,730.371765 96.598297,708.140198 111.457191,688.312805 
	C115.544128,682.859253 121.657585,678.971069 126.411079,673.956909 
	C130.936646,669.183167 134.747177,663.806335 134.920563,656.781677 
	C126.252365,654.581543 125.574104,652.684570 130.494263,645.813232 
	C131.423508,644.515564 132.122986,643.053406 133.673431,640.385010 
	C129.636703,638.783752 126.207581,636.481567 122.608208,636.174438 
	C112.311150,635.295715 104.659767,643.485168 103.913223,654.507812 
	C103.331978,663.089966 106.571259,670.376343 110.117996,677.739441 
	C110.826927,679.211243 111.652290,681.551025 110.998070,682.608154 
	C106.071281,690.568542 100.787750,698.308289 95.853516,705.757874 
	C94.678001,698.494263 93.974869,690.795044 92.112228,683.387390 
	C88.925179,670.712585 80.392326,661.246460 71.589706,652.133057 
	C66.053589,646.401428 57.546509,646.643005 52.126877,652.421753 
	C48.683006,656.093811 48.712193,659.017517 52.229893,662.741272 
	C55.704105,666.419006 55.368832,669.036987 51.585728,673.029541 
	C50.330296,674.354492 49.085453,676.727600 49.385685,678.331360 
	C53.336586,699.436707 64.678490,715.526489 83.130203,726.485718 
	C85.673264,727.996155 85.827225,729.318054 85.224571,732.075745 
	C82.582077,744.167419 80.081665,756.305542 78.091125,768.518250 
	C76.996803,775.232239 77.016129,782.127747 76.450943,790.104492 
	C71.394676,775.572144 61.041721,767.795166 48.526196,762.236023 
	C40.935310,758.864258 33.425007,755.310425 25.819923,751.971924 
	C24.357353,751.329895 22.230612,750.558655 21.092546,751.153076 
	C18.527174,752.493103 15.557885,754.206543 14.285295,756.587219 
	C12.661973,759.624023 16.197985,760.503540 18.302851,761.652161 
	C19.325239,762.210144 20.444260,762.611206 21.410271,763.248840 
	C25.547922,765.979797 26.347681,770.604919 22.528038,773.687317 
	C19.463390,776.160339 19.911409,778.149414 21.431786,780.906616 
	C33.627670,803.023987 52.569847,814.673096 77.481583,816.933777 
	C80.192421,817.179810 81.355148,817.892212 82.235199,820.718872 
	C85.189926,830.209229 88.683929,839.531738 91.041443,848.979736 
	C67.884315,848.986511 44.726871,848.939880 21.570562,849.080261 
	C19.183578,849.094727 16.803356,850.224365 14.419997,850.836487 
	C16.838961,851.572083 19.257675,852.951050 21.676918,852.952026 
	C273.405975,853.049500 525.135071,853.043335 776.864136,853.043274 
	C777.863708,853.043274 778.925110,853.257080 779.848450,852.991516 
	C781.229187,852.594421 782.512878,851.859680 783.837769,851.268494 
	C782.558533,850.513794 781.352783,849.543152 779.976135,849.074585 
	C778.930664,848.718567 777.667786,849.001526 776.501587,849.000000 
	C757.343506,848.974182 738.185425,848.948364 719.022339,848.170288 
	C722.255615,838.606689 725.407166,829.013611 728.831299,819.518799 
	C729.233521,818.403442 731.101807,817.167725 732.346680,817.105042 
	C746.046570,816.415161 758.224915,811.556702 769.320496,803.802856 
	C779.187256,796.907715 786.215637,787.704224 790.411926,778.117798 
	C788.514282,774.397400 786.721558,772.053955 786.108276,769.434387 
	C784.863708,764.118896 789.506836,762.762024 792.935608,761.127747 
	C796.786011,759.292542 796.555725,756.827637 794.885742,753.847351 
	C793.080139,750.624939 788.818848,749.816711 784.227661,751.927185 
	C779.389771,754.151245 774.777527,756.917419 769.833313,758.849548 
	C754.043884,765.020203 739.306885,772.284851 733.307861,790.200745 
	C734.190491,768.972656 730.790955,748.687561 724.124939,728.666321 
	C725.881775,727.532898 727.514038,726.416382 729.205566,725.398376 
	C746.278320,715.123718 756.139526,699.710144 760.802490,680.709290 
	C761.487000,677.919617 761.558350,675.049683 758.466125,672.740112 
	C754.888428,670.067932 754.872131,665.086426 758.454590,662.494568 
	C762.083984,659.868774 761.380249,657.198181 759.577881,654.355347 
	C754.920593,647.009399 745.216003,645.772461 738.852356,651.727356 
	C736.688049,653.752625 734.993530,656.271362 732.996582,658.485535 
	C721.910767,670.777771 715.021484,684.702759 715.981201,701.734985 
	C716.084351,703.565613 715.995117,705.407043 715.995117,708.203735 
	C709.610168,698.342957 703.956482,689.611511 698.315796,680.879150 
	C703.417908,671.716064 708.070374,662.602783 706.096130,651.382446 
	C704.122803,640.167175 691.760803,632.563354 682.256653,637.367615 
	C677.255554,639.895630 677.116333,641.537170 680.372986,646.068787 
	C681.777161,648.022644 682.955750,651.084106 682.411804,653.165405 
	C682.039185,654.591187 678.514954,655.191162 676.402527,656.166626 
	C676.108154,656.302490 675.830688,656.474792 674.833923,657.017822 
	C676.894653,665.866333 681.977234,672.797363 688.700134,678.929504 
	C693.420593,683.235229 698.390076,687.556396 702.004028,692.738525 
	C721.086853,720.101807 730.213562,750.732239 729.853394,784.008545 
	C729.748352,793.714355 728.628784,803.558838 726.623840,813.054565 
	C724.392151,823.624268 720.619568,833.868530 717.517700,844.254517 
	C715.916138,837.426758 715.559082,830.838379 713.909729,824.591125 
	C712.228882,818.224548 709.281250,812.191711 706.880371,806.015869 
	C703.998657,798.603333 699.042297,795.369568 691.562622,796.009155 
	C684.589478,796.605469 681.351929,801.127991 682.728882,807.890625 
	C683.015503,809.298218 682.625427,811.832581 681.711426,812.338806 
	C674.585938,816.285278 676.659180,823.161011 676.153076,829.118591 
	C676.032776,830.535400 677.186646,832.250183 678.148071,833.532776 
	C680.829285,837.109619 683.459656,840.791870 686.618408,843.919006 
	C688.567078,845.848206 687.843201,847.162109 686.031860,848.935425 
	C652.635132,848.945801 619.238464,848.956238 586.003723,848.060791 
	C585.388794,840.155762 584.874695,832.239868 584.029968,824.359497 
	C583.925598,823.386169 582.058777,822.601746 580.977173,820.828857 
	C580.926697,813.170715 580.876221,805.512512 581.065308,797.057861 
	C580.062561,792.609131 578.377136,788.190613 578.178650,783.706299 
	C577.435181,766.908875 577.011780,750.091797 576.828308,733.278137 
	C576.764099,727.385498 578.546387,721.410339 578.034363,715.600708 
	C577.387329,708.258484 576.669495,700.986206 576.765930,693.586121 
	C576.825500,689.015015 575.381653,684.445007 575.066284,679.843384 
	C574.611145,673.203003 574.531799,666.535461 574.356201,659.877747 
	C574.018311,647.067566 572.528748,634.149658 573.658081,621.467102 
	C576.153259,593.446472 567.492798,569.756042 548.847839,549.306824 
	C547.600952,547.939270 545.203186,546.958740 543.325562,546.933655 
	C528.840942,546.740173 514.351990,546.898010 499.865967,546.767700 
	C496.940918,546.741333 495.579803,547.455322 494.625427,550.498779 
	C493.381958,554.464233 491.025299,558.073425 489.263336,561.889282 
	C488.894226,562.688660 489.086548,563.731018 488.917999,564.642578 
	C488.554382,566.609070 488.244598,568.598022 487.691772,570.514038 
	C486.974823,572.998657 485.500000,575.375854 485.291199,577.877747 
	C483.920807,594.295959 482.544952,610.721375 481.656616,627.170654 
	C479.669617,663.963135 479.943390,700.744812 483.732269,737.425171 
	C485.439850,753.956177 487.784149,770.421326 488.945801,786.932983 
	C486.163788,786.932983 483.381744,786.932983 479.738983,786.932983 
	C481.205872,798.713318 482.587189,809.806274 483.118774,821.036682 
	C482.411713,821.458801 481.037415,822.041565 481.094727,822.279663 
	C482.707336,828.979492 477.277130,830.900330 473.357300,833.792175 
	C470.712433,835.743347 467.973694,837.568726 465.255310,839.418579 
	C461.707489,841.832886 460.885742,844.617920 463.456665,848.631775 
	C461.643097,848.754517 459.829651,848.982910 458.015991,848.984375 
	C425.712463,849.010986 393.408905,849.010010 361.127136,848.260681 
	C359.442017,841.776245 355.253601,838.093994 348.676697,836.945618 
	C347.421082,836.726379 345.966827,836.289978 345.098999,835.445435 
	C341.820160,832.254028 338.275543,831.102234 334.125977,832.355957 
	C335.833496,818.741150 337.540985,805.126343 339.337128,790.804626 
	C333.802979,790.804626 329.012543,790.804626 324.211029,790.006042 
	C326.804901,762.330261 329.220215,734.635681 332.132904,706.993469 
	C332.767609,700.969849 331.809448,695.884033 328.352692,691.145508 
	C326.208984,688.206970 326.278290,685.332520 327.256378,681.856567 
	C328.754639,676.531921 330.986023,670.743164 330.207916,665.556213 
	C324.854797,629.870972 318.737091,594.300964 313.062225,558.662537 
	C312.460388,554.883179 311.159485,553.418274 307.273560,552.956604 
	C290.259491,550.935120 273.300629,548.450623 256.289917,546.397583 
	C253.888092,546.107727 251.005722,546.707520 248.870041,547.863770 
	C241.420319,551.897034 234.287903,556.514526 226.856003,560.583313 
	C223.285416,562.538086 221.405167,565.234558 220.834167,569.116333 
	C219.073013,581.088379 219.295303,592.914368 223.219452,604.507507 
	C223.510803,605.368286 223.492783,606.391724 223.394730,607.315796 
	C223.058167,610.487854 222.357346,613.643127 222.281906,616.816345 
	C222.148285,622.436646 222.660797,628.079895 222.378967,633.687256 
	C221.937042,642.480225 220.062378,651.315674 220.624329,660.014954 
	C221.295914,670.411804 223.985260,680.669739 225.627258,691.015320 
	C226.822403,698.545471 229.492111,706.377014 228.431732,713.624695 
	C225.740967,732.015869 221.221024,750.134827 217.705811,768.415100 
	C217.184677,771.125183 217.466202,774.417542 218.570618,776.911621 
	C220.215363,780.625793 220.504684,783.485718 216.345200,785.767151 
	C215.022049,785.250366 213.698914,784.733521 212.082611,784.102173 
	C206.452301,797.456909 200.963272,810.476501 194.783539,823.722717 
M375.531708,137.750809 
	C358.745270,147.531204 341.945435,157.288895 325.207520,167.151672 
	C324.261719,167.708984 323.247742,169.124176 323.238007,170.149307 
	C323.107666,183.859528 323.150848,197.571411 323.150848,211.282867 
	C326.661774,207.973892 329.254761,204.393295 331.805695,200.782990 
	C346.572357,179.883606 361.329163,158.977234 376.464691,137.829865 
	C376.351257,137.682266 376.237854,137.534668 376.124451,137.387054 
	C376.152039,137.641006 376.179596,137.894958 375.531708,137.750809 
M336.802002,149.926620 
	C349.397888,142.565231 362.008209,135.228317 374.562775,127.797104 
	C375.592072,127.187843 376.241394,125.936546 376.957520,124.286140 
	C359.338287,95.080322 341.719086,65.874512 324.099854,36.668697 
	C323.810974,36.767445 323.522064,36.866192 323.233185,36.964939 
	C323.233185,58.656067 323.233185,80.347198 323.096039,102.961784 
	C323.166870,120.290573 323.237671,137.619354 323.125458,155.559204 
	C323.811096,156.024414 324.801025,157.045563 325.132721,156.864044 
	C327.192261,155.736908 329.104095,154.339905 331.633606,152.954315 
	C332.078186,152.609894 332.522766,152.265472 333.611023,151.924591 
	C334.446625,151.303146 335.282227,150.681686 336.802002,149.926620 
M302.131195,157.827194 
	C302.347778,157.510269 302.564362,157.193344 302.841248,155.956696 
	C302.803528,138.021591 302.765778,120.086494 302.873779,101.205177 
	C302.873779,79.929520 302.873779,58.653866 302.873779,37.378212 
	C302.374847,37.326469 301.875916,37.274731 301.376984,37.222992 
	C300.837769,38.035553 300.266571,38.828857 299.764099,39.663544 
	C289.895203,56.057945 279.991272,72.431519 270.186005,88.863960 
	C263.034271,100.849434 256.014709,112.913765 248.629089,125.637474 
	C249.089539,126.093254 249.479645,126.668221 250.020645,126.987518 
	C267.258057,137.161285 284.510040,147.310272 302.131195,157.827194 
M430.195129,356.952484 
	C431.661194,358.618835 433.082123,360.328125 434.611389,361.934326 
	C435.443207,362.807983 436.778107,363.323639 437.343994,364.311371 
	C445.770874,379.019928 454.088257,393.791138 462.483063,408.518188 
	C463.880707,410.970154 465.362122,413.407288 467.088501,415.631073 
	C469.611694,418.881256 472.604858,419.309540 475.458313,416.032227 
	C480.350250,410.413574 485.118805,404.687531 490.021027,398.910034 
	C481.311401,389.090057 472.627533,379.865417 464.643158,370.070618 
	C460.306030,364.750061 454.375061,359.968689 454.894104,351.754639 
	C454.948395,350.895386 452.067108,349.419312 450.363190,349.022766 
	C449.100525,348.728912 447.538208,349.722778 445.820587,349.487762 
	C440.684204,341.330200 435.309875,333.310486 430.481445,324.974579 
	C426.053253,317.329590 419.588806,310.796112 418.091309,301.476379 
	C417.449402,297.481567 413.903198,295.135742 410.004852,295.413269 
	C405.544037,295.730804 401.518463,297.824493 400.615051,302.913147 
	C399.891968,306.986176 401.269501,310.288391 404.983551,312.599426 
	C406.438568,313.504791 407.814514,314.906036 408.631897,316.405548 
	C412.850220,324.143982 416.814728,332.020325 420.989105,339.783356 
	C423.971313,345.329376 427.144836,350.772522 430.195129,356.952484 
M612.983032,489.848083 
	C621.822144,503.147675 630.697388,516.423584 639.456482,529.775757 
	C640.598328,531.516479 641.464233,533.580017 641.900818,535.613647 
	C642.979736,540.639771 645.767273,543.443848 651.114380,543.787231 
	C655.339539,544.058472 657.948792,541.455017 659.476562,537.862793 
	C661.247803,533.697937 659.507324,529.223022 655.719727,526.455872 
	C653.928589,525.147339 652.128540,523.550842 651.007080,521.680359 
	C647.243713,515.403381 643.890503,508.881775 640.178833,502.572266 
	C636.230286,495.859985 632.052307,489.282684 627.593384,482.217834 
	C627.053711,481.221741 626.514038,480.225616 625.988403,478.464630 
	C621.390442,470.000580 616.792480,461.536530 612.241028,453.157990 
	C610.314697,454.093933 609.142029,454.663727 607.427551,454.801727 
	C598.750000,442.427246 590.112732,430.024139 581.378052,417.690125 
	C576.897766,411.363586 573.771301,411.493164 569.412720,418.046478 
	C566.929626,421.779938 564.771362,425.751648 562.055908,429.301819 
	C559.478088,432.672058 559.780029,434.954163 562.613953,438.238159 
	C574.325073,451.809143 585.710388,465.663239 597.081421,479.523163 
	C598.473267,481.219727 599.250000,483.513245 599.977112,485.644287 
	C601.689697,490.663605 605.149109,491.675690 612.983032,489.848083 
M508.859283,339.517761 
	C507.062927,343.045746 504.767639,346.413879 503.575378,350.135376 
	C501.184540,357.598328 504.393097,367.501709 509.942719,371.694183 
	C510.942230,372.467926 511.941772,373.241699 513.279480,374.619598 
	C515.546570,375.715912 517.813599,376.812225 520.860229,377.954102 
	C525.505432,379.188141 530.117554,380.569061 534.802551,381.626678 
	C545.698547,384.086365 556.303406,380.170593 560.913147,370.774231 
	C571.526611,349.140259 566.942993,333.890808 547.156860,322.026917 
	C542.047546,318.963348 536.544617,318.586578 530.767700,320.021973 
	C528.809998,320.508392 526.554138,320.558746 524.588074,320.120087 
	C514.077637,317.775085 505.248322,322.539154 501.182861,333.359039 
	C503.772949,335.148224 506.466675,337.009003 508.859283,339.517761 
M276.583618,341.805664 
	C294.942291,336.708679 300.182617,314.049835 289.902222,301.169464 
	C289.237549,297.573608 289.151978,293.722626 287.717102,290.466125 
	C286.651520,288.047729 284.154266,285.485718 281.719757,284.636963 
	C278.530853,283.525269 274.775757,284.037537 270.891083,283.831482 
	C271.774200,282.554871 272.538269,281.450348 273.716492,279.747162 
	C265.716675,280.490784 258.428833,281.124268 251.151108,281.858185 
	C244.965057,282.481995 243.721771,283.768280 242.908127,290.053833 
	C235.397446,290.819580 231.373840,295.512970 229.781128,302.430939 
	C227.908524,310.564514 227.536575,318.926300 232.357605,326.081482 
	C235.254761,330.381317 239.780869,333.606934 243.674713,337.207367 
	C253.327728,346.132996 264.407959,345.292145 276.583618,341.805664 
M183.919617,287.082550 
	C182.158218,285.965332 180.396820,284.848114 178.754425,283.806396 
	C175.708084,287.321564 172.625916,290.272430 170.263046,293.716766 
	C162.810623,304.580170 155.487869,315.539368 148.405350,326.646637 
	C145.299850,331.516937 142.935989,336.856598 140.161789,341.942963 
	C138.432571,345.113342 138.980103,347.726440 141.178116,350.585144 
	C157.108383,371.303772 172.887070,392.138916 188.814835,412.859467 
	C189.823563,414.171722 191.599365,415.477112 193.158875,415.674316 
	C197.897736,416.273682 202.705582,416.327545 207.669571,416.604004 
	C207.823441,415.777588 208.071091,415.144318 208.037247,414.526489 
	C207.354248,402.055573 206.688995,389.583069 205.858200,377.121735 
	C205.767807,375.765961 204.972214,374.201569 204.015945,373.199371 
	C195.873016,364.665222 188.061859,355.729156 179.203308,348.000031 
	C174.919357,344.262299 175.357361,340.989807 177.823837,337.993469 
	C180.796112,334.382690 181.629257,331.027802 182.270050,326.374512 
	C183.375885,318.344025 187.155701,310.681793 190.143097,303.507385 
	C190.849045,304.379242 191.555008,305.251129 192.635468,306.585541 
	C197.114487,296.822083 201.438919,287.548096 205.608826,278.205170 
	C206.738098,275.674988 207.845596,274.008331 211.072464,273.510315 
	C215.687256,272.798126 218.844788,268.234802 218.873901,263.790253 
	C218.904968,259.047546 215.579788,254.760803 210.936066,253.556992 
	C206.636139,252.442307 201.651291,254.508728 199.485641,258.598663 
	C194.447891,268.112671 189.539581,277.695221 183.919617,287.082550 
M539.891113,479.071838 
	C540.961121,477.805847 542.431824,476.705688 543.035522,475.246735 
	C546.721985,466.338318 550.259583,457.366974 553.726868,448.370361 
	C554.427856,446.551575 554.947266,444.540527 554.981689,442.608002 
	C555.144836,433.450623 555.156311,424.289429 555.098206,415.130371 
	C555.089478,413.753815 554.884644,411.722595 553.998047,411.107300 
	C543.149841,403.578735 532.882019,394.566376 518.464844,395.078217 
	C516.860596,395.135132 515.086548,396.428772 513.776428,397.585175 
	C510.243378,400.703918 506.939026,404.080261 503.505951,407.314056 
	C498.828979,411.719513 494.051453,416.020538 489.449951,420.502777 
	C487.431366,422.469055 486.016296,425.111847 483.854492,426.864349 
	C473.959259,434.886292 475.101776,444.444275 479.441864,454.318024 
	C481.414551,458.805878 482.859863,463.568268 484.087494,468.324097 
	C484.772430,470.977539 485.825012,472.231598 488.616760,472.477570 
	C493.082336,472.871063 497.514191,473.646729 501.271515,474.694061 
	C495.680298,474.694061 490.089111,474.694061 483.707306,474.694061 
	C485.349854,486.582642 486.855347,497.479309 488.429932,508.876068 
	C505.170197,510.907166 521.802551,512.925232 539.145996,515.029541 
	C539.145996,502.591583 539.145996,490.876678 539.891113,479.071838 
M345.303619,480.652710 
	C345.415863,481.128937 345.434570,481.653961 345.653961,482.074219 
	C351.179016,492.658020 356.625885,503.284607 362.316040,513.779236 
	C364.621765,518.031738 368.649658,519.558777 373.344940,518.776550 
	C377.670807,518.055847 381.292145,513.701416 381.405609,509.199066 
	C381.526276,504.411011 379.524994,500.350342 374.854462,499.171753 
	C370.936371,498.183044 369.186768,496.124054 367.713745,492.692291 
	C363.878662,483.757477 359.680298,474.978546 355.440399,465.730743 
	C352.383118,469.799133 349.673187,473.405243 346.767456,476.282379 
	C347.160858,475.371002 347.378326,474.318451 347.977325,473.572144 
	C350.991669,469.816528 350.521820,466.368164 348.180634,462.272858 
	C344.307281,455.497620 340.848846,448.451752 337.730499,441.295502 
	C336.564819,438.620361 336.132355,435.204834 336.588837,432.320557 
	C338.120575,422.642944 340.189636,413.049866 342.079681,403.429657 
	C344.605988,390.570740 334.923950,383.188446 323.456543,382.160400 
	C315.190155,381.419281 315.145660,381.915741 312.934570,388.587921 
	C309.862335,387.194122 306.830963,385.429596 303.566895,384.410828 
	C293.691040,381.328522 283.782257,378.567261 278.437103,368.283478 
	C277.781799,367.022675 275.074371,366.288208 273.295776,366.246063 
	C265.973724,366.072540 258.635162,366.087006 251.320663,366.423462 
	C249.189514,366.521545 246.448410,367.324310 245.127182,368.814850 
	C236.052002,379.052979 224.583801,385.546051 212.177658,390.652527 
	C208.920959,391.993042 207.855530,393.668762 208.560471,397.504486 
	C213.665665,425.282532 218.501694,453.110809 223.215134,480.958374 
	C223.537201,482.861176 222.091858,485.030457 221.624771,487.110901 
	C221.305511,488.532928 220.938385,490.067841 221.164032,491.459625 
	C221.502899,493.549744 222.486206,495.527069 222.943481,497.607758 
	C224.649216,505.368988 222.500443,512.716736 220.392487,520.066223 
	C218.881393,525.334778 217.314407,530.594788 216.085434,535.930664 
	C215.820816,537.079651 216.612350,538.821777 217.496460,539.721741 
	C217.876770,540.108826 219.853699,539.242981 220.899521,538.607666 
	C226.134491,535.427429 230.981827,531.385071 236.548157,529.013550 
	C258.881531,519.498474 282.318176,515.203674 306.597351,516.122620 
	C310.628601,516.275146 312.442078,514.751831 310.945892,511.448700 
	C308.880676,506.889557 308.469330,502.609741 309.221283,497.720428 
	C310.130737,491.806915 304.479919,485.644348 309.679535,479.710724 
	C309.886963,479.473999 309.646027,478.746613 309.481628,478.296112 
	C305.671051,467.851227 309.000305,457.367249 309.687103,446.602051 
	C319.684723,460.319214 329.682312,474.036377 339.851898,487.989502 
	C341.840302,484.908997 343.430603,482.445221 345.303619,480.652710 
M257.232330,149.284103 
	C272.032013,170.059601 286.831665,190.835098 301.631317,211.610611 
	C302.706726,198.288605 302.603882,185.369553 302.781311,172.454376 
	C302.824005,169.347549 301.699097,167.638901 299.113556,166.143051 
	C285.432526,158.227890 271.836334,150.166168 258.204956,142.165085 
	C255.707214,140.699020 253.182831,139.278336 250.670746,137.836716 
	C250.386185,138.144562 250.101624,138.452408 249.817047,138.760254 
	C252.162720,142.065994 254.508392,145.371750 257.232330,149.284103 
M584.774536,341.919769 
	C582.194641,336.650757 580.036926,331.097687 576.792480,326.275848 
	C575.739502,324.710938 571.413269,324.020996 569.380798,324.860168 
	C567.737122,325.538849 566.650391,329.055542 566.436462,331.414886 
	C565.900391,337.327332 568.931580,342.295990 571.960327,347.046387 
	C574.046936,350.319061 577.199524,352.343903 581.255066,351.016113 
	C585.280273,349.698334 585.125488,346.150726 584.774536,341.919769 
z"/>
<path fill="#302F41" opacity="1.000000" stroke="none" 
	d="
M216.980789,786.013367 
	C220.504684,783.485718 220.215363,780.625793 218.570618,776.911621 
	C217.466202,774.417542 217.184677,771.125183 217.705811,768.415100 
	C221.221024,750.134827 225.740967,732.015869 228.431732,713.624695 
	C229.492111,706.377014 226.822403,698.545471 225.627258,691.015320 
	C223.985260,680.669739 221.295914,670.411804 220.624329,660.014954 
	C220.062378,651.315674 221.937042,642.480225 222.378967,633.687256 
	C222.660797,628.079895 222.148285,622.436646 222.281906,616.816345 
	C222.357346,613.643127 223.058167,610.487854 223.394730,607.315796 
	C223.492783,606.391724 223.510803,605.368286 223.219452,604.507507 
	C219.295303,592.914368 219.073013,581.088379 220.834167,569.116333 
	C221.405167,565.234558 223.285416,562.538086 226.856003,560.583313 
	C234.287903,556.514526 241.420319,551.897034 248.870041,547.863770 
	C251.005722,546.707520 253.888092,546.107727 256.289917,546.397583 
	C273.300629,548.450623 290.259491,550.935120 307.273560,552.956604 
	C311.159485,553.418274 312.460388,554.883179 313.062225,558.662537 
	C318.737091,594.300964 324.854797,629.870972 330.207916,665.556213 
	C330.986023,670.743164 328.754639,676.531921 327.256378,681.856567 
	C326.278290,685.332520 326.208984,688.206970 328.352692,691.145508 
	C331.809448,695.884033 332.767609,700.969849 332.132904,706.993469 
	C329.220215,734.635681 326.804901,762.330261 324.153015,790.860962 
	C324.017242,793.520752 323.905365,795.325012 323.868958,797.130676 
	C323.794250,800.837341 322.479034,805.212158 323.987396,808.106689 
	C326.752563,813.413147 325.657959,816.442932 320.596008,819.130554 
	C318.152863,820.106018 316.107727,821.760437 313.985626,821.865845 
	C307.017822,822.212036 300.022034,821.995972 292.392120,821.995972 
	C292.392120,819.581604 292.412567,817.456238 292.388977,815.331421 
	C292.117004,790.840271 291.780487,766.349609 291.589539,741.857849 
	C291.511597,731.856323 291.628296,721.880310 286.468018,712.784119 
	C285.997131,711.954041 285.895355,710.882629 285.751160,709.904236 
	C284.469238,701.206970 283.449951,692.463501 281.899017,683.815125 
	C279.698822,671.546387 277.113312,659.346863 274.692444,647.117737 
	C274.151733,647.150024 273.611023,647.182373 273.070312,647.214661 
	C273.070312,665.035400 272.915771,682.858032 273.133331,700.676086 
	C273.247742,710.047729 271.886200,718.706970 268.193329,727.633179 
	C257.403870,753.713074 247.741470,780.260803 237.762604,806.672424 
	C236.610107,809.722778 235.252884,811.176270 231.706192,810.943909 
	C226.912506,810.629822 222.069916,811.061707 216.799591,811.094360 
	C214.607956,810.890381 212.865036,810.765686 210.380814,810.587891 
	C212.823761,801.975830 208.727982,792.501953 216.980789,786.013367 
z"/>
<path fill="#302F41" opacity="1.000000" stroke="none" 
	d="
M489.839569,786.916382 
	C487.784149,770.421326 485.439850,753.956177 483.732269,737.425171 
	C479.943390,700.744812 479.669617,663.963135 481.656616,627.170654 
	C482.544952,610.721375 483.920807,594.295959 485.291199,577.877747 
	C485.500000,575.375854 486.974823,572.998657 487.691772,570.514038 
	C488.244598,568.598022 488.554382,566.609070 488.917999,564.642578 
	C489.086548,563.731018 488.894226,562.688660 489.263336,561.889282 
	C491.025299,558.073425 493.381958,554.464233 494.625427,550.498779 
	C495.579803,547.455322 496.940918,546.741333 499.865967,546.767700 
	C514.351990,546.898010 528.840942,546.740173 543.325562,546.933655 
	C545.203186,546.958740 547.600952,547.939270 548.847839,549.306824 
	C567.492798,569.756042 576.153259,593.446472 573.658081,621.467102 
	C572.528748,634.149658 574.018311,647.067566 574.356201,659.877747 
	C574.531799,666.535461 574.611145,673.203003 575.066284,679.843384 
	C575.381653,684.445007 576.825500,689.015015 576.765930,693.586121 
	C576.669495,700.986206 577.387329,708.258484 578.034363,715.600708 
	C578.546387,721.410339 576.764099,727.385498 576.828308,733.278137 
	C577.011780,750.091797 577.435181,766.908875 578.178650,783.706299 
	C578.377136,788.190613 580.062561,792.609131 580.505737,797.577393 
	C575.273499,798.375183 570.600830,798.653442 565.476440,798.919434 
	C564.858948,798.922546 564.692322,798.957214 564.527466,798.950378 
	C561.412109,798.820740 557.976257,799.401978 555.331970,798.217346 
	C554.196533,797.708618 554.914856,793.489380 554.435974,791.025024 
	C544.896729,741.934021 535.313660,692.851440 525.686523,643.777649 
	C525.386169,642.246643 524.520752,640.826599 523.918823,639.354797 
	C523.506348,639.454468 523.093872,639.554138 522.681396,639.653748 
	C520.216797,689.158569 517.752197,738.663330 515.367920,786.554565 
	C517.448975,788.694336 518.737915,790.019531 520.026794,791.344788 
	C518.528748,792.200195 517.079529,793.680237 515.524048,793.802002 
	C509.072021,794.307068 502.587891,794.401978 495.689331,794.532593 
	C488.723511,794.421326 488.513611,794.150757 490.055939,787.871948 
	C490.125641,787.588257 489.917999,787.236450 489.839569,786.916382 
z"/>
<path fill="#6B64F6" opacity="1.000000" stroke="none" 
	d="
M345.020874,479.981445 
	C343.430603,482.445221 341.840302,484.908997 339.851898,487.989502 
	C329.682312,474.036377 319.684723,460.319214 309.687103,446.602051 
	C309.000305,457.367249 305.671051,467.851227 309.481628,478.296112 
	C309.646027,478.746613 309.886963,479.473999 309.679535,479.710724 
	C304.479919,485.644348 310.130737,491.806915 309.221283,497.720428 
	C308.469330,502.609741 308.880676,506.889557 310.945892,511.448700 
	C312.442078,514.751831 310.628601,516.275146 306.597351,516.122620 
	C282.318176,515.203674 258.881531,519.498474 236.548157,529.013550 
	C230.981827,531.385071 226.134491,535.427429 220.899521,538.607666 
	C219.853699,539.242981 217.876770,540.108826 217.496460,539.721741 
	C216.612350,538.821777 215.820816,537.079651 216.085434,535.930664 
	C217.314407,530.594788 218.881393,525.334778 220.392487,520.066223 
	C222.500443,512.716736 224.649216,505.368988 222.943481,497.607758 
	C222.486206,495.527069 221.502899,493.549744 221.164032,491.459625 
	C220.938385,490.067841 221.305511,488.532928 221.624771,487.110901 
	C222.091858,485.030457 223.537201,482.861176 223.215134,480.958374 
	C218.501694,453.110809 213.665665,425.282532 208.560471,397.504486 
	C207.855530,393.668762 208.920959,391.993042 212.177658,390.652527 
	C224.583801,385.546051 236.052002,379.052979 245.127182,368.814850 
	C246.448410,367.324310 249.189514,366.521545 251.320663,366.423462 
	C258.635162,366.087006 265.973724,366.072540 273.295776,366.246063 
	C275.074371,366.288208 277.781799,367.022675 278.437103,368.283478 
	C283.782257,378.567261 293.691040,381.328522 303.566895,384.410828 
	C306.830963,385.429596 309.862335,387.194122 312.934570,388.587921 
	C315.145660,381.915741 315.190155,381.419281 323.456543,382.160400 
	C334.923950,383.188446 344.605988,390.570740 342.079681,403.429657 
	C340.189636,413.049866 338.120575,422.642944 336.588837,432.320557 
	C336.132355,435.204834 336.564819,438.620361 337.730499,441.295502 
	C340.848846,448.451752 344.307281,455.497620 348.180634,462.272858 
	C350.521820,466.368164 350.991669,469.816528 347.977325,473.572144 
	C347.378326,474.318451 347.160858,475.371002 346.877319,476.623047 
	C346.987152,476.963715 347.040253,476.971008 346.683533,477.018372 
	C346.209808,477.725922 346.092865,478.386108 345.977631,479.015564 
	C345.979340,478.984833 346.037567,478.964722 345.720459,478.929932 
	C345.262054,479.280609 345.120758,479.666077 344.974609,480.024963 
	C344.969788,479.998322 345.020874,479.981445 345.020874,479.981445 
M311.484314,393.501648 
	C311.535492,393.216248 311.586670,392.930847 311.637817,392.645447 
	C311.530090,392.818054 311.422363,392.990662 311.484314,393.501648 
z"/>
<path fill="#F2F2F2" opacity="1.000000" stroke="none" 
	d="
M91.971519,848.918457 
	C88.683929,839.531738 85.189926,830.209229 82.235199,820.718872 
	C81.355148,817.892212 80.192421,817.179810 77.481583,816.933777 
	C52.569847,814.673096 33.627670,803.023987 21.431786,780.906616 
	C19.911409,778.149414 19.463390,776.160339 22.528038,773.687317 
	C26.347681,770.604919 25.547922,765.979797 21.410271,763.248840 
	C20.444260,762.611206 19.325239,762.210144 18.302851,761.652161 
	C16.197985,760.503540 12.661973,759.624023 14.285295,756.587219 
	C15.557885,754.206543 18.527174,752.493103 21.092546,751.153076 
	C22.230612,750.558655 24.357353,751.329895 25.819923,751.971924 
	C33.425007,755.310425 40.935310,758.864258 48.526196,762.236023 
	C61.041721,767.795166 71.394676,775.572144 76.450943,790.104492 
	C77.016129,782.127747 76.996803,775.232239 78.091125,768.518250 
	C80.081665,756.305542 82.582077,744.167419 85.224571,732.075745 
	C85.827225,729.318054 85.673264,727.996155 83.130203,726.485718 
	C64.678490,715.526489 53.336586,699.436707 49.385685,678.331360 
	C49.085453,676.727600 50.330296,674.354492 51.585728,673.029541 
	C55.368832,669.036987 55.704105,666.419006 52.229893,662.741272 
	C48.712193,659.017517 48.683006,656.093811 52.126877,652.421753 
	C57.546509,646.643005 66.053589,646.401428 71.589706,652.133057 
	C80.392326,661.246460 88.925179,670.712585 92.112228,683.387390 
	C93.974869,690.795044 94.678001,698.494263 95.853516,705.757874 
	C100.787750,698.308289 106.071281,690.568542 110.998070,682.608154 
	C111.652290,681.551025 110.826927,679.211243 110.117996,677.739441 
	C106.571259,670.376343 103.331978,663.089966 103.913223,654.507812 
	C104.659767,643.485168 112.311150,635.295715 122.608208,636.174438 
	C126.207581,636.481567 129.636703,638.783752 133.673431,640.385010 
	C132.122986,643.053406 131.423508,644.515564 130.494263,645.813232 
	C125.574104,652.684570 126.252365,654.581543 134.920563,656.781677 
	C134.747177,663.806335 130.936646,669.183167 126.411079,673.956909 
	C121.657585,678.971069 115.544128,682.859253 111.457191,688.312805 
	C96.598297,708.140198 86.607964,730.371765 83.167725,754.970398 
	C81.361900,767.882446 80.639961,781.136108 81.256172,794.148987 
	C82.040009,810.702026 86.028465,826.820312 93.759445,841.987305 
	C93.941109,838.515564 93.391678,834.802856 94.441429,831.617188 
	C97.598770,822.035522 100.974281,812.480469 105.041870,803.257874 
	C108.439056,795.555420 118.337875,793.547546 124.967949,798.663269 
	C127.800354,800.848694 130.013657,803.343201 127.938896,807.620361 
	C127.336411,808.862366 128.417953,811.793823 129.661819,812.904114 
	C134.412552,817.144531 136.022995,828.258057 132.109543,833.377319 
	C129.394745,836.928650 126.367065,840.247314 123.767929,843.876770 
	C122.992210,844.959900 123.191765,846.741455 122.520988,848.585754 
	C112.055496,848.951782 102.013504,848.935120 91.971519,848.918457 
z"/>
<path fill="#F2F2F2" opacity="1.000000" stroke="none" 
	d="
M686.960266,848.874390 
	C687.843201,847.162109 688.567078,845.848206 686.618408,843.919006 
	C683.459656,840.791870 680.829285,837.109619 678.148071,833.532776 
	C677.186646,832.250183 676.032776,830.535400 676.153076,829.118591 
	C676.659180,823.161011 674.585938,816.285278 681.711426,812.338806 
	C682.625427,811.832581 683.015503,809.298218 682.728882,807.890625 
	C681.351929,801.127991 684.589478,796.605469 691.562622,796.009155 
	C699.042297,795.369568 703.998657,798.603333 706.880371,806.015869 
	C709.281250,812.191711 712.228882,818.224548 713.909729,824.591125 
	C715.559082,830.838379 715.916138,837.426758 717.517700,844.254517 
	C720.619568,833.868530 724.392151,823.624268 726.623840,813.054565 
	C728.628784,803.558838 729.748352,793.714355 729.853394,784.008545 
	C730.213562,750.732239 721.086853,720.101807 702.004028,692.738525 
	C698.390076,687.556396 693.420593,683.235229 688.700134,678.929504 
	C681.977234,672.797363 676.894653,665.866333 674.833923,657.017822 
	C675.830688,656.474792 676.108154,656.302490 676.402527,656.166626 
	C678.514954,655.191162 682.039185,654.591187 682.411804,653.165405 
	C682.955750,651.084106 681.777161,648.022644 680.372986,646.068787 
	C677.116333,641.537170 677.255554,639.895630 682.256653,637.367615 
	C691.760803,632.563354 704.122803,640.167175 706.096130,651.382446 
	C708.070374,662.602783 703.417908,671.716064 698.309326,680.879639 
	C703.956482,689.611511 709.610168,698.342957 715.995117,708.203735 
	C715.995117,705.407043 716.084351,703.565613 715.981201,701.734985 
	C715.021484,684.702759 721.910767,670.777771 732.996582,658.485535 
	C734.993530,656.271362 736.688049,653.752625 738.852356,651.727356 
	C745.216003,645.772461 754.920593,647.009399 759.577881,654.355347 
	C761.380249,657.198181 762.083984,659.868774 758.454590,662.494568 
	C754.872131,665.086426 754.888428,670.067932 758.466125,672.740112 
	C761.558350,675.049683 761.487000,677.919617 760.802490,680.709290 
	C756.139526,699.710144 746.278320,715.123718 729.205566,725.398376 
	C727.514038,726.416382 725.881775,727.532898 724.124939,728.666321 
	C730.790955,748.687561 734.190491,768.972656 733.307861,790.200745 
	C739.306885,772.284851 754.043884,765.020203 769.833313,758.849548 
	C774.777527,756.917419 779.389771,754.151245 784.227661,751.927185 
	C788.818848,749.816711 793.080139,750.624939 794.885742,753.847351 
	C796.555725,756.827637 796.786011,759.292542 792.935608,761.127747 
	C789.506836,762.762024 784.863708,764.118896 786.108276,769.434387 
	C786.721558,772.053955 788.514282,774.397400 790.411926,778.117798 
	C786.215637,787.704224 779.187256,796.907715 769.320496,803.802856 
	C758.224915,811.556702 746.046570,816.415161 732.346680,817.105042 
	C731.101807,817.167725 729.233521,818.403442 728.831299,819.518799 
	C725.407166,829.013611 722.255615,838.606689 718.554077,848.575500 
	C707.710632,848.945251 697.335449,848.909851 686.960266,848.874390 
z"/>
<path fill="#6B64F6" opacity="1.000000" stroke="none" 
	d="
M501.960297,474.260834 
	C497.514191,473.646729 493.082336,472.871063 488.616760,472.477570 
	C485.825012,472.231598 484.772430,470.977539 484.087494,468.324097 
	C482.859863,463.568268 481.414551,458.805878 479.441864,454.318024 
	C475.101776,444.444275 473.959259,434.886292 483.854492,426.864349 
	C486.016296,425.111847 487.431366,422.469055 489.449951,420.502777 
	C494.051453,416.020538 498.828979,411.719513 503.505951,407.314056 
	C506.939026,404.080261 510.243378,400.703918 513.776428,397.585175 
	C515.086548,396.428772 516.860596,395.135132 518.464844,395.078217 
	C532.882019,394.566376 543.149841,403.578735 553.998047,411.107300 
	C554.884644,411.722595 555.089478,413.753815 555.098206,415.130371 
	C555.156311,424.289429 555.144836,433.450623 554.981689,442.608002 
	C554.947266,444.540527 554.427856,446.551575 553.726868,448.370361 
	C550.259583,457.366974 546.721985,466.338318 543.035522,475.246735 
	C542.431824,476.705688 540.961121,477.805847 539.098877,479.021606 
	C526.191162,477.401184 514.075745,475.831024 501.960297,474.260834 
z"/>
<path fill="#6B64F6" opacity="1.000000" stroke="none" 
	d="
M189.813538,302.865051 
	C187.155701,310.681793 183.375885,318.344025 182.270050,326.374512 
	C181.629257,331.027802 180.796112,334.382690 177.823837,337.993469 
	C175.357361,340.989807 174.919357,344.262299 179.203308,348.000031 
	C188.061859,355.729156 195.873016,364.665222 204.015945,373.199371 
	C204.972214,374.201569 205.767807,375.765961 205.858200,377.121735 
	C206.688995,389.583069 207.354248,402.055573 208.037247,414.526489 
	C208.071091,415.144318 207.823441,415.777588 207.669571,416.604004 
	C202.705582,416.327545 197.897736,416.273682 193.158875,415.674316 
	C191.599365,415.477112 189.823563,414.171722 188.814835,412.859467 
	C172.887070,392.138916 157.108383,371.303772 141.178116,350.585144 
	C138.980103,347.726440 138.432571,345.113342 140.161789,341.942963 
	C142.935989,336.856598 145.299850,331.516937 148.405350,326.646637 
	C155.487869,315.539368 162.810623,304.580170 170.263046,293.716766 
	C172.625916,290.272430 175.708084,287.321564 178.754425,283.806396 
	C180.396820,284.848114 182.158218,285.965332 184.398071,287.469849 
	C190.617523,291.512573 193.364288,296.153015 189.813538,302.865051 
z"/>
<path fill="#CCCCCC" opacity="1.000000" stroke="none" 
	d="
M686.496094,848.904907 
	C697.335449,848.909851 707.710632,848.945251 718.556580,848.951660 
	C738.185425,848.948364 757.343506,848.974182 776.501587,849.000000 
	C777.667786,849.001526 778.930664,848.718567 779.976135,849.074585 
	C781.352783,849.543152 782.558533,850.513794 783.837769,851.268555 
	C782.512878,851.859680 781.229187,852.594421 779.848450,852.991516 
	C778.925110,853.257080 777.863708,853.043274 776.864136,853.043274 
	C525.135071,853.043335 273.405975,853.049500 21.676918,852.952026 
	C19.257675,852.951050 16.838961,851.572083 14.419996,850.836487 
	C16.803356,850.224365 19.183578,849.094727 21.570562,849.080261 
	C44.726871,848.939880 67.884315,848.986511 91.506485,848.949097 
	C102.013504,848.935120 112.055496,848.951782 122.568474,848.922180 
	C152.120148,848.830200 181.200836,848.784424 211.001312,848.570068 
	C214.476379,848.600281 217.231644,848.799072 220.456329,848.985352 
	C255.028458,848.967529 289.131165,848.962219 323.687927,848.955078 
	C336.463135,848.973877 348.784241,848.994446 361.105377,849.015015 
	C393.408905,849.010010 425.712463,849.010986 458.015991,848.984375 
	C459.829651,848.982910 461.643097,848.754517 464.141663,848.368652 
	C472.241852,848.329468 479.656555,848.651978 487.072723,848.690796 
	C488.481384,848.698181 489.948517,846.985840 491.297180,847.104736 
	C494.452972,847.383057 497.553223,848.291199 501.166382,848.963379 
	C517.970825,848.975830 534.284851,848.969299 551.014893,848.836975 
	C562.895386,849.584961 574.383057,847.321777 585.841736,848.966614 
	C619.238464,848.956238 652.635132,848.945801 686.496094,848.904907 
z"/>
<path fill="#313042" opacity="1.000000" stroke="none" 
	d="
M275.848175,341.762726 
	C264.407959,345.292145 253.327728,346.132996 243.674713,337.207367 
	C239.780869,333.606934 235.254761,330.381317 232.357605,326.081482 
	C227.536575,318.926300 227.908524,310.564514 229.781128,302.430939 
	C231.373840,295.512970 235.397446,290.819580 242.908127,290.053833 
	C243.721771,283.768280 244.965057,282.481995 251.151108,281.858185 
	C258.428833,281.124268 265.716675,280.490784 273.716492,279.747162 
	C272.538269,281.450348 271.774200,282.554871 270.891083,283.831482 
	C274.775757,284.037537 278.530853,283.525269 281.719757,284.636963 
	C284.154266,285.485718 286.651520,288.047729 287.717102,290.466125 
	C289.151978,293.722626 289.237549,297.573608 289.913086,301.966370 
	C289.827972,303.714325 289.731964,304.665375 289.633820,305.637543 
	C278.514496,303.583923 276.973480,305.160431 277.863281,316.587860 
	C278.522949,325.059692 280.585541,333.700562 275.848175,341.762726 
z"/>
<path fill="#313042" opacity="1.000000" stroke="none" 
	d="
M512.941284,374.015442 
	C511.941772,373.241699 510.942230,372.467926 510.272705,371.366241 
	C521.618103,368.882202 528.925476,362.725189 531.879883,351.872009 
	C526.360718,347.683228 517.845764,347.722748 516.646301,339.918335 
	C513.988525,339.546051 511.574463,339.207916 509.160400,338.869781 
	C506.466675,337.009003 503.772949,335.148224 501.182861,333.359039 
	C505.248322,322.539154 514.077637,317.775085 524.588074,320.120087 
	C526.554138,320.558746 528.809998,320.508392 530.767700,320.021973 
	C536.544617,318.586578 542.047546,318.963348 547.156860,322.026917 
	C566.942993,333.890808 571.526611,349.140259 560.913147,370.774231 
	C556.303406,380.170593 545.698547,384.086365 534.802551,381.626678 
	C530.117554,380.569061 525.505432,379.188141 520.315735,377.593811 
	C522.814941,374.021118 525.858582,370.808685 528.902283,367.596252 
	C528.733948,367.331512 528.565613,367.066772 528.397278,366.802002 
	C523.245300,369.206482 518.093262,371.610962 512.941284,374.015442 
z"/>
<path fill="#6B64F6" opacity="1.000000" stroke="none" 
	d="
M625.974365,479.229492 
	C626.514038,480.225616 627.053711,481.221741 627.416443,482.548065 
	C622.424866,484.979797 617.610291,487.081268 612.795654,489.182739 
	C605.149109,491.675690 601.689697,490.663605 599.977112,485.644287 
	C599.250000,483.513245 598.473267,481.219727 597.081421,479.523163 
	C585.710388,465.663239 574.325073,451.809143 562.613953,438.238159 
	C559.780029,434.954163 559.478088,432.672058 562.055908,429.301819 
	C564.771362,425.751648 566.929626,421.779938 569.412720,418.046478 
	C573.771301,411.493164 576.897766,411.363586 581.378052,417.690125 
	C590.112732,430.024139 598.750000,442.427246 607.765869,455.338135 
	C611.355957,461.090729 614.963806,466.126068 617.736450,471.585480 
	C619.644592,475.342560 621.662292,478.352997 625.974365,479.229492 
z"/>
<path fill="#F4B9B9" opacity="1.000000" stroke="none" 
	d="
M501.615906,474.477448 
	C514.075745,475.831024 526.191162,477.401184 538.726318,479.066589 
	C539.145996,490.876678 539.145996,502.591583 539.145996,515.029541 
	C521.802551,512.925232 505.170197,510.907166 488.429932,508.876068 
	C486.855347,497.479309 485.349854,486.582642 483.707306,474.694061 
	C490.089111,474.694061 495.680298,474.694061 501.615906,474.477448 
z"/>
<path fill="#8D8D8D" opacity="1.000000" stroke="none" 
	d="
M248.936218,124.942932 
	C256.014709,112.913765 263.034271,100.849434 270.186005,88.863960 
	C279.991272,72.431519 289.895203,56.057945 299.764099,39.663544 
	C300.266571,38.828857 300.837769,38.035553 301.376984,37.222992 
	C301.875916,37.274731 302.374847,37.326469 302.873779,37.378212 
	C302.873779,58.653866 302.873779,79.929520 302.429138,101.613411 
	C296.068298,104.453613 290.108398,106.785309 284.245056,109.338669 
	C272.447632,114.476181 260.702759,119.734467 248.936218,124.942932 
z"/>
<path fill="#373737" opacity="1.000000" stroke="none" 
	d="
M323.233185,102.038330 
	C323.233185,80.347198 323.233185,58.656067 323.233185,36.964939 
	C323.522064,36.866192 323.810974,36.767445 324.099854,36.668697 
	C341.719086,65.874512 359.338287,95.080322 376.644806,124.602707 
	C364.281952,119.475464 352.272797,113.938179 340.163300,108.629715 
	C334.621704,106.200401 328.882690,104.221497 323.233185,102.038330 
z"/>
<path fill="#6B64F6" opacity="1.000000" stroke="none" 
	d="
M446.109375,350.143005 
	C447.538208,349.722778 449.100525,348.728912 450.363190,349.022766 
	C452.067108,349.419312 454.948395,350.895386 454.894104,351.754639 
	C454.375061,359.968689 460.306030,364.750061 464.643158,370.070618 
	C472.627533,379.865417 481.311401,389.090057 490.021027,398.910034 
	C485.118805,404.687531 480.350250,410.413574 475.458313,416.032227 
	C472.604858,419.309540 469.611694,418.881256 467.088501,415.631073 
	C465.362122,413.407288 463.880707,410.970154 462.483063,408.518188 
	C454.088257,393.791138 445.770874,379.019928 437.343994,364.311371 
	C436.778107,363.323639 435.443207,362.807983 434.611389,361.934326 
	C433.082123,360.328125 431.661194,358.618835 430.582581,356.548279 
	C436.016449,354.143738 441.062927,352.143372 446.109375,350.143005 
z"/>
<path fill="#393939" opacity="1.000000" stroke="none" 
	d="
M248.782654,125.290207 
	C260.702759,119.734467 272.447632,114.476181 284.245056,109.338669 
	C290.108398,106.785309 296.068298,104.453613 302.356262,102.086517 
	C302.765778,120.086494 302.803528,138.021591 302.524536,156.508698 
	C302.058533,157.194809 301.909180,157.328903 301.759857,157.463013 
	C284.510040,147.310272 267.258057,137.161285 250.020645,126.987518 
	C249.479645,126.668221 249.089539,126.093254 248.782654,125.290207 
z"/>
<path fill="#151515" opacity="1.000000" stroke="none" 
	d="
M323.164612,102.500061 
	C328.882690,104.221497 334.621704,106.200401 340.163300,108.629715 
	C352.272797,113.938179 364.281952,119.475464 376.699677,124.951431 
	C376.241394,125.936546 375.592072,127.187843 374.562775,127.797104 
	C362.008209,135.228317 349.397888,142.565231 336.103516,149.950836 
	C334.592499,150.623703 333.779907,151.272369 332.967346,151.921036 
	C332.522766,152.265472 332.078186,152.609894 330.973511,152.952881 
	C327.978424,153.617004 325.643433,154.282578 323.308472,154.948151 
	C323.237671,137.619354 323.166870,120.290573 323.164612,102.500061 
z"/>
<path fill="#909090" opacity="1.000000" stroke="none" 
	d="
M257.043213,148.980804 
	C254.508392,145.371750 252.162720,142.065994 249.817047,138.760254 
	C250.101624,138.452408 250.386185,138.144562 250.670746,137.836716 
	C253.182831,139.278336 255.707214,140.699020 258.204956,142.165085 
	C271.836334,150.166168 285.432526,158.227890 299.113556,166.143051 
	C301.699097,167.638901 302.824005,169.347549 302.781311,172.454376 
	C302.603882,185.369553 302.706726,198.288605 301.631317,211.610611 
	C286.831665,190.835098 272.032013,170.059601 257.043213,148.980804 
z"/>
<path fill="#383838" opacity="1.000000" stroke="none" 
	d="
M376.089294,138.073227 
	C361.329163,158.977234 346.572357,179.883606 331.805695,200.782990 
	C329.254761,204.393295 326.661774,207.973892 323.150848,211.282867 
	C323.150848,197.571411 323.107666,183.859528 323.238007,170.149307 
	C323.247742,169.124176 324.261719,167.708984 325.207520,167.151672 
	C341.945435,157.288895 358.745270,147.531204 375.839600,137.931549 
	C376.147491,138.112274 376.089294,138.073227 376.089294,138.073227 
z"/>
<path fill="#F4B9B9" opacity="1.000000" stroke="none" 
	d="
M612.889343,489.515411 
	C617.610291,487.081268 622.424866,484.979797 627.607056,482.762390 
	C632.052307,489.282684 636.230286,495.859985 640.178833,502.572266 
	C643.890503,508.881775 647.243713,515.403381 651.007080,521.680359 
	C652.128540,523.550842 653.928589,525.147339 655.719727,526.455872 
	C659.507324,529.223022 661.247803,533.697937 659.476562,537.862793 
	C657.948792,541.455017 655.339539,544.058472 651.114380,543.787231 
	C645.767273,543.443848 642.979736,540.639771 641.900818,535.613647 
	C641.464233,533.580017 640.598328,531.516479 639.456482,529.775757 
	C630.697388,516.423584 621.822144,503.147675 612.889343,489.515411 
z"/>
<path fill="#F4B9B9" opacity="1.000000" stroke="none" 
	d="
M445.964966,349.815369 
	C441.062927,352.143372 436.016449,354.143738 430.601501,356.202820 
	C427.144836,350.772522 423.971313,345.329376 420.989105,339.783356 
	C416.814728,332.020325 412.850220,324.143982 408.631897,316.405548 
	C407.814514,314.906036 406.438568,313.504791 404.983551,312.599426 
	C401.269501,310.288391 399.891968,306.986176 400.615051,302.913147 
	C401.518463,297.824493 405.544037,295.730804 410.004852,295.413269 
	C413.903198,295.135742 417.449402,297.481567 418.091309,301.476379 
	C419.588806,310.796112 426.053253,317.329590 430.481445,324.974579 
	C435.309875,333.310486 440.684204,341.330200 445.964966,349.815369 
z"/>
<path fill="#99676E" opacity="1.000000" stroke="none" 
	d="
M346.975220,476.987549 
	C349.673187,473.405243 352.383118,469.799133 355.440399,465.730743 
	C359.680298,474.978546 363.878662,483.757477 367.713745,492.692291 
	C369.186768,496.124054 370.936371,498.183044 374.854462,499.171753 
	C379.524994,500.350342 381.526276,504.411011 381.405609,509.199066 
	C381.292145,513.701416 377.670807,518.055847 373.344940,518.776550 
	C368.649658,519.558777 364.621765,518.031738 362.316040,513.779236 
	C356.625885,503.284607 351.179016,492.658020 345.653961,482.074219 
	C345.434570,481.653961 345.415863,481.128937 345.162231,480.317078 
	C345.020874,479.981445 344.969788,479.998322 345.285767,480.042664 
	C345.747009,479.712891 345.892303,479.338806 346.037567,478.964722 
	C346.037567,478.964722 345.979340,478.984833 346.278748,478.884399 
	C346.732208,478.179657 346.886230,477.575348 347.040253,476.971008 
	C347.040253,476.971008 346.987152,476.963715 346.975220,476.987549 
z"/>
<path fill="#343345" opacity="1.000000" stroke="none" 
	d="
M585.922729,848.513672 
	C574.383057,847.321777 562.895386,849.584961 550.820435,848.525879 
	C546.479309,844.557983 546.480896,842.510437 550.458008,839.586243 
	C554.331360,836.738281 558.221741,833.888184 562.299744,831.352783 
	C565.089233,829.618469 566.750732,827.726440 566.326111,824.198547 
	C566.203430,823.178650 567.416504,821.998047 568.457031,820.975220 
	C572.934082,821.282837 576.971375,821.506348 581.008606,821.729858 
	C582.058777,822.601746 583.925598,823.386169 584.029968,824.359497 
	C584.874695,832.239868 585.388794,840.155762 585.922729,848.513672 
z"/>
<path fill="#343345" opacity="1.000000" stroke="none" 
	d="
M500.675964,848.944336 
	C497.553223,848.291199 494.452972,847.383057 491.297180,847.104736 
	C489.948517,846.985840 488.481384,848.698181 487.072723,848.690796 
	C479.656555,848.651978 472.241852,848.329468 464.415497,848.048584 
	C460.885742,844.617920 461.707489,841.832886 465.255310,839.418579 
	C467.973694,837.568726 470.712433,835.743347 473.357300,833.792175 
	C477.277130,830.900330 482.707336,828.979492 481.094727,822.279663 
	C481.037415,822.041565 482.411713,821.458801 483.967987,821.062317 
	C488.570892,821.297974 492.324615,821.507935 496.487244,821.815796 
	C497.553192,822.472168 498.735809,822.985779 498.787872,823.595947 
	C499.508087,832.037659 500.073059,840.492615 500.675964,848.944336 
z"/>
<path fill="#99676E" opacity="1.000000" stroke="none" 
	d="
M189.978317,303.186218 
	C193.364288,296.153015 190.617523,291.512573 184.727692,287.553558 
	C189.539581,277.695221 194.447891,268.112671 199.485641,258.598663 
	C201.651291,254.508728 206.636139,252.442307 210.936066,253.556992 
	C215.579788,254.760803 218.904968,259.047546 218.873901,263.790253 
	C218.844788,268.234802 215.687256,272.798126 211.072464,273.510315 
	C207.845596,274.008331 206.738098,275.674988 205.608826,278.205170 
	C201.438919,287.548096 197.114487,296.822083 192.635468,306.585541 
	C191.555008,305.251129 190.849045,304.379242 189.978317,303.186218 
z"/>
<path fill="#97656C" opacity="1.000000" stroke="none" 
	d="
M320.958740,819.100098 
	C325.657959,816.442932 326.752563,813.413147 323.987396,808.106689 
	C322.479034,805.212158 323.794250,800.837341 323.868958,797.130676 
	C323.905365,795.325012 324.017242,793.520752 324.158539,791.260254 
	C329.012543,790.804626 333.802979,790.804626 339.337128,790.804626 
	C337.540985,805.126343 335.833496,818.741150 333.854248,833.045166 
	C331.807159,834.506165 329.990784,835.197327 328.267578,836.072021 
	C326.435059,837.002197 324.690826,838.106201 322.475464,839.093018 
	C321.673218,837.730469 321.013489,836.415344 320.984802,835.086609 
	C320.869781,829.760071 320.950409,824.429321 320.958740,819.100098 
z"/>
<path fill="#F4B9B9" opacity="1.000000" stroke="none" 
	d="
M509.009827,339.193787 
	C511.574463,339.207916 513.988525,339.546051 516.646301,339.918335 
	C517.845764,347.722748 526.360718,347.683228 531.879883,351.872009 
	C528.925476,362.725189 521.618103,368.882202 510.196228,371.057617 
	C504.393097,367.501709 501.184540,357.598328 503.575378,350.135376 
	C504.767639,346.413879 507.062927,343.045746 509.009827,339.193787 
z"/>
<path fill="#313042" opacity="1.000000" stroke="none" 
	d="
M219.986908,848.997864 
	C217.231644,848.799072 214.476379,848.600281 211.324799,848.320679 
	C202.097839,844.404602 193.267181,840.569336 183.892715,836.497864 
	C185.842270,831.944031 187.755371,827.475342 189.694321,822.946289 
	C191.603195,823.237488 193.193359,823.480103 195.604156,823.746094 
	C200.548523,824.547913 204.672272,825.326355 208.871124,826.451904 
	C210.284348,828.633972 211.256775,831.010315 213.026794,832.205933 
	C219.167221,836.353760 221.279114,841.903564 219.986908,848.997864 
z"/>
<path fill="#97656C" opacity="1.000000" stroke="none" 
	d="
M276.215881,341.784180 
	C280.585541,333.700562 278.522949,325.059692 277.863281,316.587860 
	C276.973480,305.160431 278.514496,303.583923 289.633820,305.637543 
	C289.731964,304.665375 289.827972,303.714325 289.974518,302.380096 
	C300.182617,314.049835 294.942291,336.708679 276.215881,341.784180 
z"/>
<path fill="#313042" opacity="1.000000" stroke="none" 
	d="
M322.908051,839.134277 
	C324.690826,838.106201 326.435059,837.002197 328.267578,836.072021 
	C329.990784,835.197327 331.807159,834.506165 333.788513,833.462158 
	C338.275543,831.102234 341.820160,832.254028 345.098999,835.445435 
	C345.966827,836.289978 347.421082,836.726379 348.676697,836.945618 
	C355.253601,838.093994 359.442017,841.776245 361.116272,848.637817 
	C348.784241,848.994446 336.463135,848.973877 323.655273,848.507812 
	C323.081696,845.086304 322.994873,842.110291 322.908051,839.134277 
z"/>
<path fill="#F4B9B9" opacity="1.000000" stroke="none" 
	d="
M496.078308,821.717896 
	C492.324615,821.507935 488.570892,821.297974 484.392822,820.993652 
	C482.587189,809.806274 481.205872,798.713318 479.738983,786.932983 
	C483.381744,786.932983 486.163788,786.932983 489.392700,786.924683 
	C489.917999,787.236450 490.125641,787.588257 490.055939,787.871948 
	C488.513611,794.150757 488.723511,794.421326 495.668091,794.956482 
	C496.074799,804.236206 496.076538,812.977051 496.078308,821.717896 
z"/>
<path fill="#343345" opacity="1.000000" stroke="none" 
	d="
M584.837036,342.335663 
	C585.125488,346.150726 585.280273,349.698334 581.255066,351.016113 
	C577.199524,352.343903 574.046936,350.319061 571.960327,347.046387 
	C568.931580,342.295990 565.900391,337.327332 566.436462,331.414886 
	C566.650391,329.055542 567.737122,325.538849 569.380798,324.860168 
	C571.413269,324.020996 575.739502,324.710938 576.792480,326.275848 
	C580.036926,331.097687 582.194641,336.650757 584.837036,342.335663 
z"/>
<path fill="#99676E" opacity="1.000000" stroke="none" 
	d="
M208.796051,826.104797 
	C204.672272,825.326355 200.548523,824.547913 195.949493,823.632812 
	C200.963272,810.476501 206.452301,797.456909 212.082611,784.102173 
	C213.698914,784.733521 215.022049,785.250366 216.662994,785.890259 
	C208.727982,792.501953 212.823761,801.975830 210.380814,810.587891 
	C212.865036,810.765686 214.607956,810.890381 216.726074,811.443115 
	C214.332886,816.615662 211.564468,821.360229 208.796051,826.104797 
z"/>
<path fill="#F4B9B9" opacity="1.000000" stroke="none" 
	d="
M580.992920,821.279358 
	C576.971375,821.506348 572.934082,821.282837 568.470825,820.538696 
	C567.339294,812.989319 566.633728,805.960510 565.928162,798.931702 
	C570.600830,798.653442 575.273499,798.375183 580.385986,797.975647 
	C580.876221,805.512512 580.926697,813.170715 580.992920,821.279358 
z"/>
<path fill="#F4B9B9" opacity="1.000000" stroke="none" 
	d="
M625.981384,478.847046 
	C621.662292,478.352997 619.644592,475.342560 617.736450,471.585480 
	C614.963806,466.126068 611.355957,461.090729 608.036804,455.554016 
	C609.142029,454.663727 610.314697,454.093933 612.241028,453.157990 
	C616.792480,461.536530 621.390442,470.000580 625.981384,478.847046 
z"/>
<path fill="#F4B9B9" opacity="1.000000" stroke="none" 
	d="
M513.110352,374.317505 
	C518.093262,371.610962 523.245300,369.206482 528.397278,366.802002 
	C528.565613,367.066772 528.733948,367.331512 528.902283,367.596252 
	C525.858582,370.808685 522.814941,374.021118 519.925964,377.571045 
	C517.813599,376.812225 515.546570,375.715912 513.110352,374.317505 
z"/>
<path fill="#373737" opacity="1.000000" stroke="none" 
	d="
M323.216980,155.253693 
	C325.643433,154.282578 327.978424,153.617004 330.689148,152.991943 
	C329.104095,154.339905 327.192261,155.736908 325.132721,156.864044 
	C324.801025,157.045563 323.811096,156.024414 323.216980,155.253693 
z"/>
<path fill="#373737" opacity="1.000000" stroke="none" 
	d="
M333.289185,151.922821 
	C333.779907,151.272369 334.592499,150.623703 335.761444,150.017639 
	C335.282227,150.681686 334.446625,151.303146 333.289185,151.922821 
z"/>
<path fill="#8D8D8D" opacity="1.000000" stroke="none" 
	d="
M301.945526,157.645111 
	C301.909180,157.328903 302.058533,157.194809 302.494415,156.968567 
	C302.564362,157.193344 302.347778,157.510269 301.945526,157.645111 
z"/>
<path fill="#383838" opacity="1.000000" stroke="none" 
	d="
M376.177338,138.130585 
	C376.179596,137.894958 376.152039,137.641006 376.124451,137.387054 
	C376.237854,137.534668 376.351257,137.682266 376.276978,137.951538 
	C376.089294,138.073227 376.147491,138.112274 376.177338,138.130585 
z"/>
<path fill="#FEFEFE" opacity="1.000000" stroke="none" 
	d="
M208.871124,826.451904 
	C211.564468,821.360229 214.332886,816.615662 217.174805,811.522278 
	C222.069916,811.061707 226.912506,810.629822 231.706192,810.943909 
	C235.252884,811.176270 236.610107,809.722778 237.762604,806.672424 
	C247.741470,780.260803 257.403870,753.713074 268.193329,727.633179 
	C271.886200,718.706970 273.247742,710.047729 273.133331,700.676086 
	C272.915771,682.858032 273.070312,665.035400 273.070312,647.214661 
	C273.611023,647.182373 274.151733,647.150024 274.692444,647.117737 
	C277.113312,659.346863 279.698822,671.546387 281.899017,683.815125 
	C283.449951,692.463501 284.469238,701.206970 285.751160,709.904236 
	C285.895355,710.882629 285.997131,711.954041 286.468018,712.784119 
	C291.628296,721.880310 291.511597,731.856323 291.589539,741.857849 
	C291.780487,766.349609 292.117004,790.840271 292.388977,815.331421 
	C292.412567,817.456238 292.392120,819.581604 292.392120,821.995972 
	C300.022034,821.995972 307.017822,822.212036 313.985626,821.865845 
	C316.107727,821.760437 318.152863,820.106018 320.595978,819.130554 
	C320.950409,824.429321 320.869781,829.760071 320.984802,835.086609 
	C321.013489,836.415344 321.673218,837.730469 322.475464,839.093018 
	C322.994873,842.110291 323.081696,845.086304 323.201202,848.509644 
	C289.131165,848.962219 255.028458,848.967529 220.456329,848.985352 
	C221.279114,841.903564 219.167221,836.353760 213.026794,832.205933 
	C211.256775,831.010315 210.284348,828.633972 208.871124,826.451904 
z"/>
<path fill="#FEFEFE" opacity="1.000000" stroke="none" 
	d="
M565.476440,798.919434 
	C566.633728,805.960510 567.339294,812.989319 568.031067,820.454590 
	C567.416504,821.998047 566.203430,823.178650 566.326111,824.198547 
	C566.750732,827.726440 565.089233,829.618469 562.299744,831.352783 
	C558.221741,833.888184 554.331360,836.738281 550.458008,839.586243 
	C546.480896,842.510437 546.479309,844.557983 550.404358,848.651611 
	C534.284851,848.969299 517.970825,848.975830 501.166382,848.963379 
	C500.073059,840.492615 499.508087,832.037659 498.787872,823.595947 
	C498.735809,822.985779 497.553192,822.472168 496.487244,821.815796 
	C496.076538,812.977051 496.074799,804.236206 496.094299,795.071411 
	C502.587891,794.401978 509.072021,794.307068 515.524048,793.802002 
	C517.079529,793.680237 518.528748,792.200195 520.026794,791.344788 
	C518.737915,790.019531 517.448975,788.694336 515.367920,786.554565 
	C517.752197,738.663330 520.216797,689.158569 522.681396,639.653748 
	C523.093872,639.554138 523.506348,639.454468 523.918823,639.354797 
	C524.520752,640.826599 525.386169,642.246643 525.686523,643.777649 
	C535.313660,692.851440 544.896729,741.934021 554.435974,791.025024 
	C554.914856,793.489380 554.196533,797.708618 555.331970,798.217346 
	C557.976257,799.401978 561.412109,798.820740 564.527466,798.950378 
	C564.692322,798.957214 564.858948,798.922546 565.476440,798.919434 
z"/>
<path fill="#FFFFFF" opacity="1.000000" stroke="none" 
	d="
M311.399475,393.332458 
	C311.422363,392.990662 311.530090,392.818054 311.637817,392.645447 
	C311.586670,392.930847 311.535492,393.216248 311.399475,393.332458 
z"/>
<path fill="#FFFFFF" opacity="1.000000" stroke="none" 
	d="
M346.683533,477.018372 
	C346.886230,477.575348 346.732208,478.179657 346.277039,478.915161 
	C346.092865,478.386108 346.209808,477.725922 346.683533,477.018372 
z"/>
<path fill="#FFFFFF" opacity="1.000000" stroke="none" 
	d="
M345.720459,478.929932 
	C345.892303,479.338806 345.747009,479.712891 345.290588,480.069275 
	C345.120758,479.666077 345.262054,479.280609 345.720459,478.929932 
z"/>
</svg>