<?xml version="1.0" standalone="no"?>
<!DOCTYPE svg PUBLIC "-//W3C//DTD SVG 20010904//EN"
 "http://www.w3.org/TR/2001/REC-SVG-20010904/DTD/svg10.dtd">
<svg version="1.0" xmlns="http://www.w3.org/2000/svg"
 width="512.000000pt" height="512.000000pt" viewBox="0 0 512.000000 512.000000"
 preserveAspectRatio="xMidYMid meet">

<g transform="translate(0.000000,512.000000) scale(0.100000,-0.100000)"
fill="#000000" stroke="none">
<path d="M2595 4210 c10 -11 20 -20 23 -20 3 0 -3 9 -13 20 -10 11 -20 20 -23
20 -3 0 3 -9 13 -20z"/>
<path d="M2566 4195 c-3 -9 -6 -32 -6 -50 0 -26 8 -40 36 -63 39 -32 76 -34
52 -3 -12 14 -11 15 5 2 13 -10 14 -17 7 -26 -7 -9 -7 -15 -1 -19 5 -4 12 -2
16 4 4 6 10 8 15 5 5 -3 12 -1 15 5 4 6 1 9 -7 8 -7 -2 -12 5 -12 14 1 10 -2
15 -7 13 -8 -5 -35 34 -32 46 1 3 -15 23 -36 43 -32 31 -39 35 -45 21z"/>
<path d="M2523 4179 c1 -4 -7 -15 -18 -23 -11 -8 -15 -16 -8 -16 6 0 15 5 18
10 4 6 11 7 17 4 7 -4 8 -2 4 4 -4 7 -2 12 3 12 6 0 11 4 11 8 0 5 -6 9 -14 9
-8 0 -14 -4 -13 -8z"/>
<path d="M2668 4136 c42 -46 76 -99 87 -136 13 -43 55 -101 67 -94 7 4 8 3 4
-5 -7 -10 92 -162 114 -176 18 -11 11 4 -29 63 -21 31 -57 93 -79 137 -22 44
-54 93 -71 109 -34 33 -44 60 -10 30 12 -10 33 -18 47 -17 l27 2 -25 -8 c-22
-8 -20 -9 16 -10 37 -1 45 3 82 48 34 40 39 50 26 55 -9 4 -22 2 -29 -4 -7 -6
-20 -8 -29 -4 -10 4 -16 1 -16 -7 0 -7 -3 -10 -6 -6 -8 8 -64 -13 -64 -25 0
-6 -6 -5 -15 2 -8 7 -15 9 -15 5 0 -4 -7 -2 -15 5 -8 7 -12 17 -8 24 4 7 1 6
-8 -1 -13 -10 -20 -8 -42 15 -15 16 -25 31 -22 34 3 2 -2 5 -10 5 -9 0 -1 -15
23 -41z m62 -47 c0 -6 -4 -7 -10 -4 -5 3 -10 11 -10 16 0 6 5 7 10 4 6 -3 10
-11 10 -16z"/>
<path d="M2913 4071 c-38 -50 -86 -73 -114 -55 -8 4 -10 3 -5 -4 4 -7 14 -12
22 -12 8 0 13 -4 9 -9 -11 -19 96 -216 159 -291 l21 -25 -27 24 c-16 14 -28
21 -28 16 0 -15 51 -75 62 -72 9 2 61 -71 99 -138 15 -28 -36 33 -62 73 -11
17 -23 32 -25 32 -3 0 -3 -71 -1 -157 3 -87 3 -135 1 -108 -3 28 -8 102 -13
165 l-8 115 -105 140 c-57 77 -114 155 -127 173 -27 39 -35 39 -77 7 -18 -14
-57 -38 -87 -53 l-55 -29 -58 39 c-33 22 -71 51 -85 64 l-26 25 -26 -40 c-22
-33 -24 -41 -12 -51 8 -6 20 -8 26 -4 8 4 9 3 5 -4 -4 -7 -2 -12 3 -12 6 0 11
-5 11 -11 0 -6 -15 -1 -34 10 l-34 22 -67 -91 c-75 -101 -99 -123 -33 -30 89
124 148 213 148 221 0 5 -6 9 -14 9 -18 0 -58 -51 -121 -155 -27 -44 -70 -112
-97 -152 -58 -88 -63 -114 -8 -44 22 28 43 51 45 51 3 0 -12 -22 -34 -50 -42
-54 -49 -75 -62 -190 l-8 -75 4 85 c3 47 7 95 11 108 12 42 -12 22 -76 -63
-35 -48 -68 -89 -73 -92 -6 -3 15 27 46 68 70 93 233 336 275 410 l32 56 -43
-8 c-61 -11 -106 -29 -271 -105 l-148 -68 31 -28 c17 -15 27 -28 22 -28 -5 0
-14 7 -21 15 -14 17 -35 21 -24 4 4 -8 0 -8 -15 0 -11 7 -21 16 -21 21 0 6 -7
10 -15 10 -16 0 -17 2 50 -79 l30 -36 -42 35 c-22 19 -43 42 -46 50 -3 9 -6 5
-7 -10 -2 -21 -4 -20 -10 10 -4 20 -8 -53 -9 -170 -1 -113 -4 -243 -7 -290
l-7 -85 33 30 33 30 -32 -44 c-45 -64 -42 -98 4 -37 47 61 52 59 9 -5 -31 -46
-41 -69 -30 -69 2 0 52 23 112 52 129 61 335 178 456 260 48 32 85 52 82 46
-10 -25 -333 -217 -526 -314 -71 -35 -128 -67 -128 -70 0 -4 71 -81 157 -171
l157 -165 33 68 c80 168 358 729 406 823 51 96 55 101 61 75 10 -39 118 -234
127 -228 4 2 11 -1 15 -7 5 -8 3 -9 -6 -4 -16 10 -31 40 171 -360 97 -193 179
-357 182 -365 4 -12 12 -8 32 15 15 17 86 95 159 174 72 79 133 147 134 152 2
5 -2 9 -10 9 -16 0 -278 127 -278 135 0 3 46 -18 102 -46 106 -53 178 -82 185
-75 8 8 -18 49 -74 119 -30 37 -51 67 -49 67 3 0 33 -35 67 -77 l61 -77 -7 45
c-3 24 -7 166 -8 316 l-2 271 -51 -48 c-27 -26 -65 -55 -82 -64 -46 -24 -39
-12 11 17 23 14 60 45 83 69 55 59 59 67 32 60 -19 -5 -21 -3 -11 9 10 12 8
15 -8 16 -11 1 -17 -2 -14 -7 3 -6 -1 -7 -10 -3 -13 5 -14 7 -3 14 10 7 10 9
-3 9 -9 0 -37 11 -63 25 -58 31 -200 90 -285 119 -36 13 -67 28 -69 34 -2 6
27 -1 65 -17 37 -15 86 -34 108 -41 22 -7 91 -37 154 -67 110 -52 149 -64 95
-28 -15 9 -32 18 -38 19 -6 1 -50 21 -97 43 -47 23 -111 49 -143 59 -31 10
-56 22 -56 26 0 5 -3 7 -7 5 -5 -2 -21 2 -38 9 -27 11 -28 13 -11 20 13 5 21
3 24 -4 2 -7 15 -12 28 -12 14 0 23 -4 20 -8 -3 -5 38 -24 89 -42 52 -19 95
-38 95 -43 0 -4 5 -5 10 -2 6 4 26 -3 45 -15 19 -12 35 -19 35 -15 0 4 12 -3
26 -14 15 -11 30 -18 35 -15 5 3 9 0 9 -6 0 -6 4 -9 10 -5 5 3 0 15 -11 26
-11 11 -25 17 -31 13 -6 -4 -8 -3 -5 3 4 6 -6 21 -21 34 l-27 24 24 -27 c14
-16 19 -28 13 -28 -6 0 -23 15 -37 34 -27 35 -83 63 -237 117 -71 25 -91 45
-35 35 24 -5 27 -4 12 3 -35 16 -44 12 -82 -38z m107 -158 c139 -67 258 -113
294 -113 15 0 17 -3 8 -9 -18 -11 -142 34 -287 106 -66 32 -138 66 -160 76
-22 9 -29 14 -15 11 14 -3 86 -35 160 -71z m-60 67 c8 -5 11 -10 5 -10 -5 0
-17 5 -25 10 -8 5 -10 10 -5 10 6 0 17 -5 25 -10z m-546 -29 c3 -5 -2 -15 -12
-22 -15 -12 -16 -12 -5 2 7 9 10 19 6 22 -3 4 -4 7 0 7 3 0 8 -4 11 -9z m366
-44 c0 -2 -17 -19 -37 -38 -22 -20 -30 -24 -18 -9 25 31 55 57 55 47z m335
-15 c-3 -3 -11 0 -18 7 -9 10 -8 11 6 5 10 -3 15 -9 12 -12z m-663 -29 c-5
-10 -7 -24 -5 -30 7 -19 -12 -15 -31 6 -13 14 -14 21 -5 27 8 4 10 3 5 -4 -4
-7 -3 -12 3 -12 6 0 15 9 21 21 7 11 14 18 17 16 2 -3 0 -14 -5 -24z m119 -34
c8 -15 8 -19 0 -15 -6 4 -11 0 -11 -9 0 -9 4 -13 10 -10 6 3 7 -1 4 -9 -9 -24
-37 -20 -29 4 4 11 2 20 -4 20 -6 0 -11 -9 -11 -20 0 -11 -4 -20 -10 -20 -19
0 -11 48 10 55 11 3 20 11 20 16 0 15 9 10 21 -12z m129 -4 c0 -14 -2 -25 -4
-25 -2 0 -6 11 -8 25 -3 14 -1 25 3 25 5 0 9 -11 9 -25z m-205 -53 c-3 -4 -10
0 -15 8 -8 13 -10 13 -10 1 0 -11 -3 -12 -11 -4 -15 15 -2 51 19 55 12 3 18
-4 20 -25 2 -16 1 -32 -3 -35z m153 38 c-5 -30 6 -41 15 -17 3 7 6 5 6 -5 1
-23 -35 -24 -43 -2 -9 23 -7 36 4 29 6 -3 10 1 10 9 0 9 3 16 6 16 4 0 4 -13
2 -30z m-38 6 c0 -8 3 -22 6 -30 5 -12 2 -15 -10 -10 -17 7 -23 54 -6 54 6 0
10 -6 10 -14z m680 -40 c0 -7 -66 -43 -91 -51 -13 -3 -1 7 26 24 48 29 65 36
65 27z m-1395 -24 c-3 -3 -11 0 -18 7 -9 10 -8 11 6 5 10 -3 15 -9 12 -12z
m1070 -445 c6 -6 -8 0 -30 13 -57 34 -155 100 -155 105 0 5 171 -104 185 -118z
m216 96 c13 -16 12 -17 -3 -4 -17 13 -22 21 -14 21 2 0 10 -8 17 -17z m-1289
-30 c-36 -45 -92 -106 -76 -84 20 29 97 121 101 121 3 0 -9 -17 -25 -37z
m1360 -47 c3 3 8 1 12 -4 11 -18 -25 -8 -41 12 -18 21 -18 21 3 3 11 -9 23
-14 26 -11z m-1185 -33 c-3 -10 -5 -4 -5 12 0 17 2 24 5 18 2 -7 2 -21 0 -30z
m938 -11 c-3 -3 -11 0 -18 7 -9 10 -8 11 6 5 10 -3 15 -9 12 -12z m75 -38 c0
-2 -9 0 -20 6 -19 10 -20 8 -21 -52 -1 -75 -6 -67 -11 19 l-4 62 28 -15 c15
-8 28 -17 28 -20z m-33 -186 c-3 -8 -6 -5 -6 6 -1 11 2 17 5 13 3 -3 4 -12 1
-19z"/>
<path d="M2349 4095 c-14 -52 -20 -57 -60 -51 -25 4 -39 2 -39 -4 0 -6 5 -8
10 -5 6 3 10 2 10 -4 0 -10 66 -9 76 2 3 3 7 13 8 22 1 9 8 20 15 24 10 6 9
10 -3 14 -9 4 -17 4 -17 2z"/>
<path d="M2425 4080 c-10 -11 -22 -17 -28 -13 -6 4 -7 1 -2 -6 5 -9 13 -7 31
10 13 12 24 24 24 26 0 7 -8 2 -25 -17z"/>
<path d="M2145 4076 c-17 -12 -17 -13 3 -11 26 2 37 11 24 19 -5 3 -17 -1 -27
-8z"/>
<path d="M3090 4075 c0 -7 121 -67 126 -63 2 2 -26 18 -61 36 -36 17 -65 30
-65 27z"/>
<path d="M2214 4041 c4 -5 0 -12 -6 -14 -7 -3 -2 -6 11 -6 20 -1 21 1 11 14
-14 16 -25 21 -16 6z"/>
<path d="M2366 4042 c-3 -6 -1 -14 5 -17 15 -10 25 3 12 16 -7 7 -13 7 -17 1z"/>
<path d="M2032 4019 c-24 -12 -41 -23 -39 -25 1 -2 25 8 52 21 28 13 46 25 40
25 -5 0 -29 -10 -53 -21z"/>
<path d="M2101 4023 c-35 -12 -41 -17 -28 -25 10 -5 30 -5 49 1 23 6 27 10 13
11 -14 1 -10 5 15 15 50 19 6 17 -49 -2z"/>
<path d="M3317 4019 c7 -7 15 -10 18 -7 3 3 -2 9 -12 12 -14 6 -15 5 -6 -5z"/>
<path d="M2168 4013 c7 -3 16 -2 19 1 4 3 -2 6 -13 5 -11 0 -14 -3 -6 -6z"/>
<path d="M2274 4001 c3 -5 -22 -8 -57 -8 -84 1 -262 -65 -356 -133 -17 -11
-36 -18 -41 -15 -6 4 -9 2 -8 -3 2 -5 -8 -18 -22 -30 l-24 -20 24 3 c32 4 90
27 268 108 79 36 166 68 193 72 27 4 52 12 56 17 3 7 1 8 -5 4 -7 -4 -12 -2
-12 3 0 6 -5 11 -11 11 -5 0 -8 -4 -5 -9z m-89 -27 c-27 -8 -57 -12 -65 -11
-8 2 5 8 30 14 66 16 93 14 35 -3z m-205 -77 c-69 -34 -138 -71 -155 -82 -16
-11 -26 -14 -22 -8 11 18 87 61 192 110 136 62 127 50 -15 -20z"/>
<path d="M1914 3985 c-16 -13 -16 -14 -1 -9 31 11 18 -5 -21 -25 -21 -11 -45
-27 -53 -37 -7 -9 12 0 43 20 59 37 74 43 63 26 -3 -5 -2 -10 4 -10 5 0 13 5
16 10 3 6 16 10 28 10 12 0 -14 -16 -58 -36 -44 -20 -84 -40 -90 -46 -11 -11
18 1 148 58 71 32 83 40 65 45 -25 6 -41 2 -34 -9 2 -4 -13 -7 -34 -7 -21 0
-36 3 -34 7 3 4 -3 5 -12 1 -12 -4 -15 -3 -10 5 10 16 4 15 -20 -3z"/>
<path d="M1802 3909 c-18 -16 -32 -33 -30 -37 2 -4 18 9 37 30 40 46 38 48 -7
7z"/>
<path d="M1794 3858 l-19 -23 25 20 c14 11 27 21 29 22 2 2 0 3 -6 3 -5 0 -18
-10 -29 -22z"/>
<path d="M3504 3836 c-12 -6 -29 -17 -37 -24 -8 -7 -22 -9 -32 -6 -10 4 -21 1
-26 -7 -6 -10 29 -51 124 -149 73 -74 163 -175 200 -225 63 -85 165 -270 155
-280 -3 -3 -17 24 -33 60 -25 61 -29 64 -41 46 -14 -19 -80 -49 -69 -31 4 6
13 10 21 10 8 0 13 4 9 9 -3 6 5 15 17 22 13 6 24 13 26 14 16 13 -212 296
-331 413 -67 65 -94 99 -90 110 4 15 3 15 -6 2 -12 -17 -15 -484 -4 -614 6
-71 8 -79 32 -89 14 -6 120 -65 235 -130 120 -69 243 -131 290 -147 44 -15 89
-31 99 -35 14 -6 17 -2 17 23 0 17 -4 33 -9 36 -9 6 -35 155 -28 162 2 2 10
-29 17 -71 14 -81 24 -94 34 -44 8 42 6 60 -4 29 -6 -18 -8 -6 -9 43 -1 61
-30 168 -77 281 -6 15 -4 17 7 11 8 -5 11 -4 6 0 -4 5 -14 10 -21 11 -12 2
-12 -4 0 -33 11 -24 11 -33 3 -27 -8 5 -10 1 -6 -12 56 -187 63 -228 13 -84
-18 52 -45 116 -60 142 -15 26 -25 51 -22 56 2 4 -11 28 -30 51 -19 24 -34 49
-34 55 0 6 10 -4 21 -22 12 -18 23 -31 26 -29 5 5 -61 123 -93 164 -13 17 -24
36 -24 41 0 13 -105 111 -170 158 -38 28 -67 41 -94 42 -22 2 -46 7 -55 12
-10 5 3 7 35 5 27 -2 56 0 63 5 17 10 7 41 -11 38 -7 -2 -12 3 -10 10 1 6 1
12 0 11 -2 -1 -13 -6 -24 -13z m211 -261 c72 -73 111 -119 111 -133 0 -30 -2
-28 -25 17 -11 21 -80 96 -153 167 -73 70 -113 112 -88 94 25 -19 95 -84 155
-145z m-100 35 c55 -55 97 -100 95 -100 -3 0 -50 45 -105 100 -55 55 -97 100
-95 100 3 0 50 -45 105 -100z m126 -27 c13 -16 12 -17 -3 -4 -17 13 -22 21
-14 21 2 0 10 -8 17 -17z m-1 -113 c12 -16 19 -30 16 -30 -2 0 -14 14 -26 30
-12 17 -19 30 -16 30 2 0 14 -13 26 -30z m40 -60 c6 -11 8 -20 6 -20 -3 0 -10
9 -16 20 -6 11 -8 20 -6 20 3 0 10 -9 16 -20z m24 -46 c3 -8 2 -12 -4 -9 -6 3
-10 10 -10 16 0 14 7 11 14 -7z m56 -97 c0 -12 0 -11 -24 28 l-17 30 20 -24
c12 -13 21 -28 21 -34z m48 -22 c-3 -3 -9 2 -12 12 -6 14 -5 15 5 6 7 -7 10
-15 7 -18z m-72 -100 c6 -19 10 -35 8 -35 -6 0 -34 58 -34 71 0 20 13 2 26
-36z m129 -55 c14 -40 25 -78 24 -84 0 -10 -35 82 -54 146 -17 55 7 5 30 -62z
m-36 -52 c16 -51 32 -110 36 -130 4 -23 16 -43 31 -53 20 -13 52 -55 41 -55
-1 0 -25 23 -52 51 -28 29 -44 49 -37 45 10 -6 11 -1 6 21 -7 28 -52 175 -61
200 -3 7 -3 13 0 13 4 0 19 -42 36 -92z m89 -148 c0 -14 -6 0 -13 30 -8 30
-14 60 -14 65 2 20 27 -71 27 -95z"/>
<path d="M1556 3832 c-18 -17 -2 -30 37 -30 23 0 36 2 29 5 -6 3 -10 9 -6 14
3 5 -1 9 -8 10 -7 0 -21 2 -30 4 -9 2 -19 0 -22 -3z m34 -8 c0 -8 -19 -13 -24
-6 -3 5 1 9 9 9 8 0 15 -2 15 -3z"/>
<path d="M1648 3813 c7 -3 16 -2 19 1 4 3 -2 6 -13 5 -11 0 -14 -3 -6 -6z"/>
<path d="M1665 3793 c-22 -4 -61 -37 -150 -126 -66 -67 -140 -148 -163 -179
-45 -62 -106 -168 -117 -208 -4 -14 -21 -44 -37 -68 -63 -92 -137 -282 -136
-352 0 -42 -6 -55 87 180 91 230 162 356 272 480 42 49 25 19 -43 -72 -65 -86
-152 -241 -190 -338 -76 -191 -104 -270 -114 -319 -1 -8 -9 -18 -16 -23 -10
-8 -10 -9 2 -5 139 50 293 126 499 246 85 50 158 92 163 93 4 2 7 156 6 343
l-3 339 -128 -131 c-212 -217 -306 -353 -374 -543 -13 -36 -20 -49 -17 -30 8
42 63 175 98 234 52 90 151 212 269 332 66 69 122 132 123 140 1 8 2 13 1 13
-1 -1 -15 -4 -32 -6z m-69 -83 c-35 -33 -66 -60 -71 -60 -4 0 21 27 55 60 34
33 66 60 70 60 5 0 -20 -27 -54 -60z m-235 -466 c19 -15 30 -24 24 -22 -5 3
-25 11 -42 18 -18 8 -33 18 -33 22 0 14 15 9 51 -18z m-176 -276 c-10 -35 -23
-69 -28 -75 -14 -19 8 -16 23 3 8 8 22 20 33 26 11 6 -10 -18 -47 -53 -73 -69
-112 -93 -59 -38 18 19 32 37 32 42 1 4 8 24 17 45 8 20 20 56 27 79 6 23 13
40 16 38 2 -3 -4 -33 -14 -67z"/>
<path d="M1545 3738 c-27 -23 -80 -71 -117 -107 -38 -36 -68 -61 -68 -55 0 5
23 32 51 59 28 28 65 68 82 90 l32 40 -41 -32 c-46 -36 -71 -63 -58 -63 4 0
-12 -21 -37 -47 -24 -27 -54 -59 -64 -73 l-20 -25 27 23 c35 31 49 10 16 -26
-38 -43 -84 -114 -102 -156 -22 -53 -14 -57 10 -4 27 62 120 181 241 307 58
61 103 111 101 111 -1 0 -25 -19 -53 -42z m-65 -21 c0 -2 -12 -14 -27 -28
l-28 -24 24 28 c23 25 31 32 31 24z"/>
<path d="M3570 3771 c0 -5 12 -17 28 -27 103 -67 208 -191 287 -340 17 -32 25
-40 25 -26 0 11 -4 24 -10 27 -5 3 -10 11 -10 16 0 6 5 7 12 3 8 -5 9 -2 4 12
-5 10 -12 33 -17 49 -18 62 -222 275 -262 275 -9 0 -19 5 -22 10 -8 12 -35 13
-35 1z m171 -117 c18 -11 113 -124 104 -124 -3 0 3 -9 14 -21 17 -19 34 -69
26 -78 -2 -2 -11 13 -19 34 -20 48 -45 81 -141 183 -44 48 -61 70 -39 50 23
-19 48 -39 55 -44z"/>
<path d="M1329 3593 c-13 -16 -12 -17 4 -4 9 7 17 15 17 17 0 8 -8 3 -21 -13z"/>
<path d="M1299 3553 c-13 -16 -12 -17 4 -4 9 7 17 15 17 17 0 8 -8 3 -21 -13z"/>
<path d="M3910 3461 c0 -6 4 -13 10 -16 6 -3 7 1 4 9 -7 18 -14 21 -14 7z"/>
<path d="M3930 3421 c0 -6 4 -13 10 -16 6 -3 7 1 4 9 -7 18 -14 21 -14 7z"/>
<path d="M1215 3291 c-3 -11 -28 -53 -54 -93 -26 -40 -54 -90 -62 -110 -7 -21
-17 -38 -23 -38 -5 0 -6 -3 -3 -6 3 -4 1 -16 -5 -28 -7 -11 -13 -34 -15 -51
l-2 -30 15 35 c9 19 29 67 46 107 16 40 47 99 68 131 36 57 57 102 46 102 -2
0 -7 -9 -11 -19z"/>
<path d="M1142 3223 c-27 -39 -94 -165 -89 -169 2 -2 28 41 59 96 56 100 66
124 30 73z"/>
<path d="M4034 3222 c18 -36 20 -46 6 -37 -5 3 -10 1 -10 -4 0 -6 4 -11 10
-11 12 0 34 -40 26 -47 -3 -3 -10 5 -16 18 l-11 24 6 -25 c17 -68 29 -106 36
-114 5 -5 4 8 -2 29 -6 21 -8 47 -5 58 5 21 -29 123 -45 133 -6 3 -4 -8 5 -24z"/>
<path d="M1110 3219 c-7 -11 -10 -23 -7 -25 2 -2 9 7 15 21 14 30 7 33 -8 4z"/>
<path d="M3956 3227 c3 -10 9 -15 12 -12 3 3 0 11 -7 18 -10 9 -11 8 -5 -6z"/>
<path d="M1665 3056 c-33 -17 -118 -66 -190 -108 -71 -41 -149 -85 -172 -97
-49 -24 -52 -33 -20 -50 16 -9 17 -10 2 -5 -45 15 -68 17 -61 5 4 -6 1 -11 -7
-11 -13 0 -13 -7 -1 -54 8 -30 28 -85 45 -122 l30 -67 46 44 c26 24 41 37 35
27 -9 -11 -10 -18 -2 -23 19 -12 11 -26 -9 -16 -15 9 -22 6 -35 -14 -16 -24
-15 -27 34 -90 28 -36 49 -65 46 -65 -2 0 -29 30 -60 66 -63 74 -77 62 -26
-22 29 -47 18 -38 -25 20 l-20 27 -29 -37 c-22 -28 -28 -46 -28 -81 1 -25 0
-44 -1 -42 -1 2 -11 15 -22 28 -11 14 -15 22 -9 18 6 -3 11 0 11 7 0 9 -14 5
-43 -13 -23 -14 -40 -29 -37 -34 2 -4 25 -12 51 -19 25 -6 42 -13 36 -15 -5
-2 -32 3 -59 11 -28 9 -55 12 -63 7 -10 -6 45 -38 184 -106 216 -106 464 -217
464 -208 0 8 -45 68 -104 138 -28 33 -44 54 -34 47 9 -7 42 -45 75 -83 l58
-70 6 68 5 68 2 -73 c1 -40 6 -71 11 -68 4 3 6 -5 4 -17 -4 -18 2 -26 23 -36
43 -19 274 -158 616 -370 81 -50 152 -91 157 -91 6 0 59 31 118 68 128 81 142
89 128 75 -5 -6 -62 -44 -126 -85 l-116 -76 -29 18 c-16 9 -135 82 -264 162
-261 161 -466 283 -492 293 -17 7 -18 -11 -18 -293 0 -164 -3 -319 -6 -344 -6
-42 -4 -46 17 -50 13 -3 96 -34 184 -68 252 -98 287 -110 336 -110 l46 0 -40
78 c-22 42 -35 73 -29 67 23 -22 93 -166 89 -182 -4 -14 -5 -13 -6 5 -1 13 -7
22 -16 22 -27 0 -115 -50 -115 -64 0 -8 -6 -17 -12 -19 -23 -10 9 -24 47 -21
42 4 72 19 104 53 14 14 26 25 28 24 9 -8 23 -2 18 7 -4 6 -11 8 -16 4 -5 -3
-9 -2 -8 3 3 12 -8 40 -43 108 -18 36 -22 51 -11 37 l19 -24 39 23 c21 13 35
18 31 11 -4 -7 -3 -19 4 -27 7 -8 7 -15 1 -19 -5 -4 -13 3 -16 15 -6 19 -8 20
-26 3 -20 -18 -26 -44 -9 -44 6 0 9 -3 8 -7 -3 -13 14 -57 29 -75 13 -15 12
-18 -6 -27 -36 -20 -43 -46 -20 -75 11 -14 25 -24 29 -21 5 3 27 -11 50 -31
36 -33 45 -35 41 -11 -1 5 3 6 9 2 6 -3 8 -10 5 -14 -2 -5 2 -16 9 -26 8 -12
15 -14 20 -7 6 10 -68 106 -113 146 -11 11 -21 24 -21 30 0 5 21 -10 48 -34
l47 -45 -45 47 c-24 27 -40 48 -34 48 5 0 16 -6 23 -12 10 -11 11 -10 6 4 -4
10 -13 18 -21 18 -8 0 -14 7 -14 16 0 8 4 12 10 9 6 -3 7 1 4 9 -3 9 -10 16
-16 16 -5 0 -6 -4 -3 -10 3 -6 2 -10 -3 -10 -6 0 -12 6 -15 13 -3 7 23 25 66
47 38 19 77 44 85 55 15 20 16 20 36 2 12 -11 52 -37 89 -59 l68 -39 19 23
c23 28 25 38 5 38 -8 0 -15 5 -15 10 0 7 6 7 18 1 16 -8 27 4 82 87 58 88 265
352 276 352 6 0 -92 -124 -149 -190 -38 -44 -203 -289 -215 -318 -3 -10 -1
-13 6 -8 7 4 12 1 12 -10 0 -13 -3 -14 -14 -5 -11 9 -19 5 -41 -21 -15 -18
-48 -55 -74 -83 -74 -80 -80 -93 -19 -41 32 26 55 53 51 59 -3 6 -1 7 5 3 6
-3 23 10 38 29 15 20 29 33 32 31 2 -3 -12 -25 -32 -49 -20 -24 -33 -47 -29
-50 3 -4 0 -13 -6 -21 -11 -13 -9 -15 7 -11 11 2 32 11 46 20 14 9 29 17 33
18 4 1 6 7 4 12 -12 29 8 96 48 168 18 31 35 57 38 57 3 0 -11 -29 -31 -65
-35 -63 -35 -65 -13 -65 32 0 249 71 406 132 96 37 143 61 163 83 15 16 75 82
134 145 116 125 251 289 296 359 15 25 28 40 28 34 0 -5 -13 -29 -30 -51 -34
-47 -38 -61 -12 -41 15 13 16 12 3 -3 -7 -10 -17 -16 -21 -13 -4 3 -34 -30
-66 -73 -32 -42 -108 -128 -168 -191 -97 -100 -108 -115 -91 -122 33 -13 56
-10 88 12 l32 21 -27 -25 -27 -25 41 -7 c29 -5 37 -10 27 -16 -12 -7 -12 -9 0
-9 8 0 -4 -13 -25 -29 -21 -15 -48 -38 -59 -51 -11 -13 7 -2 40 25 33 27 60
52 60 56 0 4 54 65 119 135 66 70 117 121 114 113 -4 -9 -1 -16 8 -16 7 0 11
4 8 8 -7 12 71 130 81 122 4 -5 0 5 -10 20 -10 15 -21 24 -25 20 -3 -4 -39
-54 -79 -110 -40 -57 -76 -103 -79 -103 -3 0 -1 5 6 12 7 7 12 16 12 21 0 5
-33 -27 -74 -70 -41 -43 -77 -75 -81 -71 -4 4 16 29 45 55 30 26 70 69 91 95
21 26 39 43 41 36 6 -16 108 137 108 162 0 12 4 19 8 16 4 -2 14 0 22 5 13 9
13 10 0 8 -31 -3 -50 1 -50 12 0 5 4 8 9 4 5 -3 18 7 29 22 34 48 120 226 146
304 14 40 26 67 26 58 0 -21 -31 -110 -65 -184 -15 -33 -28 -71 -29 -85 -1
-14 -7 -24 -14 -23 -17 4 -36 -37 -24 -49 10 -10 33 23 91 137 39 77 40 66 1
-21 -48 -107 -28 -85 25 28 55 117 63 167 39 253 -9 33 -18 65 -20 72 -1 6
-12 9 -23 6 -11 -3 -19 -8 -18 -12 1 -3 -10 -26 -25 -51 -14 -25 -38 -74 -53
-110 -29 -69 -42 -91 -30 -50 14 49 59 146 82 178 13 17 19 32 13 32 -6 0 -52
-21 -103 -46 -50 -26 -186 -91 -301 -146 -115 -54 -218 -106 -228 -115 -17
-15 -18 -40 -19 -347 0 -234 -3 -324 -10 -306 -7 16 -8 129 -4 325 l7 300 -36
-48 c-20 -26 -39 -47 -42 -47 -2 0 13 24 36 53 46 62 49 71 18 63 l-23 -6 23
12 c13 6 21 17 18 25 -3 8 -2 12 3 9 5 -3 13 2 17 12 10 21 18 883 9 970 -6
57 -8 61 -24 50 -30 -22 -301 -322 -301 -334 0 -6 12 -39 26 -75 15 -35 35
-89 44 -121 l18 -56 -57 -30 c-31 -16 -163 -97 -293 -181 -130 -83 -242 -151
-248 -151 -12 0 -202 113 -385 230 -66 42 -142 89 -168 105 -55 31 -55 14 9
183 l43 114 -156 164 c-111 117 -159 161 -165 152 -4 -7 -7 -206 -5 -443 2
-236 0 -405 -3 -375 -4 30 -6 221 -6 423 1 250 -2 363 -9 352 -9 -14 -58 -82
-257 -352 -18 -24 -35 -43 -40 -43 -8 0 -2 8 53 74 107 129 271 378 257 391
-2 2 -30 -11 -63 -29z m-31 -71 c-9 -14 -18 -25 -21 -25 -5 0 5 18 20 38 17
22 18 13 1 -13z m-94 -139 c0 -2 -8 -10 -17 -17 -16 -13 -17 -12 -4 4 13 16
21 21 21 13z m-92 -123 c-6 -7 -12 -13 -13 -13 -2 0 -5 6 -8 13 -3 7 3 13 14
13 13 0 15 -3 7 -13z m-38 -57 c0 -2 -8 -10 -17 -17 -16 -13 -17 -12 -4 4 13
16 21 21 21 13z m70 -36 c0 -5 -4 -10 -9 -10 -6 0 -13 5 -16 10 -3 6 1 10 9
10 9 0 16 -4 16 -10z m-25 -39 c17 -7 15 -9 -13 -13 -22 -3 -32 -1 -32 9 0 14
15 16 45 4z m22 -46 c-4 -8 -17 -14 -29 -14 l-23 2 23 4 c12 2 22 12 22 20 0
9 3 14 6 10 4 -3 4 -13 1 -22z m-63 0 c3 -8 1 -15 -4 -15 -6 0 -10 7 -10 15 0
8 2 15 4 15 2 0 6 -7 10 -15z m-44 -5 c0 -5 -5 -10 -11 -10 -5 0 -7 5 -4 10 3
6 8 10 11 10 2 0 4 -4 4 -10z m70 -165 c13 -14 21 -25 18 -25 -2 0 -15 11 -28
25 -13 14 -21 25 -18 25 2 0 15 -11 28 -25z m1780 -85 c41 -81 47 -100 32
-100 -5 0 -76 -39 -158 -86 -82 -47 -203 -115 -269 -151 -66 -36 -153 -86
-194 -111 l-74 -46 -31 19 c-17 10 -78 45 -136 78 -58 33 -184 107 -281 163
-97 57 -193 111 -213 120 -20 10 -36 21 -36 25 0 17 73 159 82 159 10 0 154
-125 413 -359 88 -80 170 -153 182 -164 28 -25 20 -30 241 175 164 153 393
358 399 358 2 0 21 -36 43 -80z m-1690 -23 c0 -9 -9 0 -50 48 -21 26 -20 25
13 -4 20 -19 37 -39 37 -44z m-283 37 c-3 -3 -12 -4 -19 -1 -8 3 -5 6 6 6 11
1 17 -2 13 -5z m2794 -105 c-5 -13 -10 -19 -10 -12 -1 15 10 45 15 40 3 -2 0
-15 -5 -28z m-2426 -71 c26 -35 38 -54 25 -43 -22 19 -85 105 -77 105 2 0 25
-28 52 -62z m2390 -33 c-15 -36 -29 -64 -31 -63 -2 2 9 34 23 71 15 36 29 65
31 62 3 -3 -7 -34 -23 -70z m85 -35 c-6 -11 -13 -20 -16 -20 -2 0 0 9 6 20 6
11 13 20 16 20 2 0 0 -9 -6 -20z m-180 -49 c-28 -56 -35 -52 -8 4 12 24 23 43
26 41 2 -2 -6 -22 -18 -45z m60 1 c0 -5 -7 -17 -15 -28 -14 -18 -14 -17 -4 9
12 27 19 34 19 19z m-75 -76 c-36 -62 -43 -59 -8 3 15 28 29 48 31 46 2 -2 -8
-24 -23 -49z m-675 -17 c-128 -74 -148 -85 -135 -71 15 15 219 132 230 132 5
0 -37 -27 -95 -61z m643 6 c-9 -19 -18 -33 -21 -31 -4 5 26 66 33 66 3 0 -3
-16 -12 -35z m-2048 -15 c10 -11 16 -20 13 -20 -3 0 -13 9 -23 20 -10 11 -16
20 -13 20 3 0 13 -9 23 -20z m-25 -15 c14 -19 14 -19 -2 -6 -10 7 -18 18 -18
24 0 6 1 8 3 6 1 -2 9 -13 17 -24z m61 -32 c13 -16 12 -17 -3 -4 -10 7 -18 15
-18 17 0 8 8 3 21 -13z m1392 -64 c-26 -34 -65 -80 -86 -103 -21 -23 -1 5 44
62 45 56 84 102 86 102 2 0 -17 -28 -44 -61z m-1317 -31 c32 -40 51 -67 43
-60 -19 14 -112 132 -106 132 3 0 31 -33 63 -72z m1139 62 c-3 -5 -11 -10 -16
-10 -6 0 -7 5 -4 10 3 6 11 10 16 10 6 0 7 -4 4 -10z m-35 -15 c0 -2 -10 -9
-22 -15 -22 -11 -22 -10 -4 4 21 17 26 19 26 11z m-85 -53 c-18 -15 -85 -54
-85 -48 0 3 19 16 43 30 43 26 59 33 42 18z m92 -54 c-3 -7 -5 -2 -5 12 0 14
2 19 5 13 2 -7 2 -19 0 -25z m877 -4 c3 -8 2 -12 -4 -9 -6 3 -10 10 -10 16 0
14 7 11 14 -7z m-1064 1 c0 -2 -10 -9 -22 -15 -22 -11 -22 -10 -4 4 21 17 26
19 26 11z m982 -34 c-15 -21 -29 -37 -31 -35 -4 4 47 74 54 74 3 0 -8 -18 -23
-39z m-42 25 c0 -2 -8 -10 -17 -17 -16 -13 -17 -12 -4 4 13 16 21 21 21 13z
m-763 -38 c-3 -8 -6 -5 -6 6 -1 11 2 17 5 13 3 -3 4 -12 1 -19z m-1006 -5 c13
-16 12 -17 -3 -4 -17 13 -22 21 -14 21 2 0 10 -8 17 -17z m1739 4 c0 -2 -15
-16 -32 -33 l-33 -29 29 33 c28 30 36 37 36 29z m-1709 -44 c13 -16 12 -17 -3
-4 -17 13 -22 21 -14 21 2 0 10 -8 17 -17z m966 -15 c-3 -8 -6 -5 -6 6 -1 11
2 17 5 13 3 -3 4 -12 1 -19z m-936 -25 c13 -16 12 -17 -3 -4 -10 7 -18 15 -18
17 0 8 8 3 21 -13z m1587 -6 c-9 -6 -51 -52 -93 -102 -43 -49 -83 -92 -89 -94
-6 -2 18 29 53 70 95 109 134 149 140 144 2 -3 -3 -11 -11 -18z m-661 -19 c-3
-8 -6 -5 -6 6 -1 11 2 17 5 13 3 -3 4 -12 1 -19z m-887 -28 c12 -16 19 -30 16
-30 -2 0 -14 14 -26 30 -12 17 -19 30 -16 30 2 0 14 -13 26 -30z m1580 27 c0
-1 -30 -32 -67 -67 l-68 -65 65 68 c60 62 70 72 70 64z m-1140 -83 c0 -21 -4
-33 -10 -29 -5 3 -10 19 -10 36 0 16 5 29 10 29 6 0 10 -16 10 -36z m1159 9
c-52 -57 -75 -79 -99 -98 -14 -11 6 13 45 53 67 69 106 102 54 45z m-1251 4
c7 -8 7 -18 2 -27 -8 -12 -10 -9 -11 10 l-1 25 -7 -25 -7 -25 -6 28 c-6 29 11
37 30 14z m29 -24 c-3 -10 -5 -4 -5 12 0 17 2 24 5 18 2 -7 2 -21 0 -30z m80
0 c-3 -10 -5 -4 -5 12 0 17 2 24 5 18 2 -7 2 -21 0 -30z m20 0 c-3 -10 -5 -4
-5 12 0 17 2 24 5 18 2 -7 2 -21 0 -30z m33 12 c0 -14 -4 -25 -10 -25 -5 0
-10 11 -10 25 0 14 5 25 10 25 6 0 10 -11 10 -25z m17 -12 c-3 -10 -5 -4 -5
12 0 17 2 24 5 18 2 -7 2 -21 0 -30z m52 14 c0 -20 -1 -21 -8 -3 -5 14 -10 16
-15 8 -4 -7 -4 -17 0 -24 4 -7 3 -8 -4 -4 -20 12 -14 42 8 43 15 1 20 -4 19
-20z m-538 -4 c13 -16 12 -17 -3 -4 -10 7 -18 15 -18 17 0 8 8 3 21 -13z
m-306 -54 l-59 -61 25 -18 c13 -10 22 -21 19 -23 -3 -3 -21 8 -40 24 -20 17
-28 29 -19 29 8 0 39 25 69 55 30 30 56 55 59 55 2 0 -22 -28 -54 -61z m572
39 c-3 -8 -6 -5 -6 6 -1 11 2 17 5 13 3 -3 4 -12 1 -19z m593 19 c0 -2 -15
-16 -32 -33 l-33 -29 29 33 c28 30 36 37 36 29z m-1243 -39 c-3 -7 -5 -2 -5
12 0 14 2 19 5 13 2 -7 2 -19 0 -25z m414 -5 c13 -16 12 -17 -3 -4 -17 13 -22
21 -14 21 2 0 10 -8 17 -17z m1000 0 c13 -16 12 -17 -3 -4 -17 13 -22 21 -14
21 2 0 10 -8 17 -17z m-1281 -23 c-8 -5 -19 -10 -25 -10 -5 0 -3 5 5 10 8 5
20 10 25 10 6 0 3 -5 -5 -10z m-143 -22 c-3 -8 -6 -5 -6 6 -1 11 2 17 5 13 3
-3 4 -12 1 -19z m458 2 c10 -11 16 -20 13 -20 -3 0 -13 9 -23 20 -10 11 -16
20 -13 20 3 0 13 -9 23 -20z m1056 -16 c9 -11 2 -9 -18 6 -18 13 -33 25 -33
27 0 8 38 -17 51 -33z m68 -27 c-2 -2 -17 12 -33 32 l-30 36 34 -32 c19 -18
32 -34 29 -36z m-778 3 c0 -23 1 -23 9 -5 l9 20 0 -20 c1 -14 4 -16 9 -8 6 9
23 -3 58 -40 41 -43 42 -46 7 -13 -37 34 -49 40 -82 38 -22 -2 -43 3 -47 9 -5
9 -2 10 10 6 16 -6 18 -3 12 30 -5 28 -4 34 3 23 6 -8 11 -26 12 -40z m-714 4
c-3 -3 -12 -4 -19 -1 -8 3 -5 6 6 6 11 1 17 -2 13 -5z m640 -29 c-4 -8 -12
-15 -19 -14 -10 0 -10 2 0 6 6 2 12 12 12 21 0 8 3 13 6 9 4 -3 4 -13 1 -22z
m776 8 c-7 -2 -19 -2 -25 0 -7 3 -2 5 12 5 14 0 19 -2 13 -5z m68 -10 c13 -16
12 -17 -3 -5 -12 10 -22 11 -37 3 -11 -6 -26 -11 -33 -11 -7 1 1 7 17 15 40
18 40 18 56 -2z m-138 0 c-7 -2 -19 -2 -25 0 -7 3 -2 5 12 5 14 0 19 -2 13 -5z
m-1202 -23 l24 -21 -32 16 c-32 15 -42 25 -24 25 5 0 19 -9 32 -20z m1159 16
c0 -2 -7 -7 -16 -10 -8 -3 -12 -2 -9 4 6 10 25 14 25 6z m-710 -31 c-7 -8 -10
-24 -7 -35 3 -11 2 -22 -3 -25 -4 -3 -11 7 -15 22 -5 20 -2 31 11 40 24 17 29
16 14 -2z m430 -5 c-6 -11 -13 -20 -16 -20 -2 0 0 9 6 20 6 11 13 20 16 20 2
0 0 -9 -6 -20z m-490 -240 c-18 -11 -24 -6 -16 16 5 14 9 15 19 5 9 -9 9 -14
-3 -21z"/>
<path d="M3402 3039 c11 -61 5 -973 -6 -1006 -7 -19 14 -12 160 56 93 43 230
109 304 146 74 37 151 74 170 81 l35 13 -56 0 c-31 1 -76 -6 -99 -14 -42 -15
-68 -19 -59 -11 3 3 42 16 88 29 l83 24 -34 13 c-18 7 -41 20 -50 28 -15 12
-16 12 -11 -7 4 -18 1 -21 -23 -20 -27 0 -27 1 -7 9 28 11 25 25 -19 99 -43
73 -32 71 16 -2 18 -29 42 -60 53 -70 23 -20 78 -21 61 0 -5 7 -13 11 -18 10
-4 -1 -35 27 -68 63 -59 65 -60 66 -41 88 10 13 15 30 12 39 -5 13 -2 15 11
10 9 -4 15 -3 11 2 -3 6 3 14 12 20 10 5 14 13 10 17 -5 5 -12 3 -16 -5 -5 -7
-11 -11 -14 -9 -4 1 -19 -17 -35 -42 -16 -25 -70 -88 -121 -140 l-93 -95 81
89 c81 87 82 89 64 110 -18 21 -18 21 3 3 21 -18 22 -17 52 29 17 25 36 69 41
97 6 29 13 61 15 72 2 11 4 1 5 -21 1 -39 3 -42 34 -47 17 -2 37 -1 43 4 6 5
15 5 19 1 5 -4 5 -1 1 6 -4 7 -2 12 6 12 18 1 -29 38 -71 56 -46 21 -34 26 18
8 24 -8 48 -13 53 -12 6 2 -23 14 -63 27 -73 23 -142 59 -369 191 -132 77
-175 100 -188 100 -6 0 -6 -21 0 -51z m39 -6 c13 -16 12 -17 -3 -4 -17 13 -22
21 -14 21 2 0 10 -8 17 -17z m39 -53 c12 -16 19 -30 16 -30 -2 0 -14 14 -26
30 -12 17 -19 30 -16 30 2 0 14 -13 26 -30z m41 -57 c13 -16 12 -17 -3 -4 -17
13 -22 21 -14 21 2 0 10 -8 17 -17z m60 -80 c13 -16 12 -17 -3 -4 -10 7 -18
15 -18 17 0 8 8 3 21 -13z m91 -182 c-4 -17 -7 -21 -10 -11 -3 8 -9 20 -14 27
-7 8 -4 11 9 10 15 -1 18 -7 15 -26z m58 -6 c19 -19 32 -35 29 -35 -3 0 -20
16 -39 35 -19 19 -32 35 -29 35 3 0 20 -16 39 -35z m-45 -38 c18 -4 18 -5 -2
-6 -16 -1 -21 -6 -17 -16 4 -8 1 -15 -5 -15 -6 0 -11 5 -11 10 0 6 -7 10 -15
10 -8 0 -15 4 -15 10 0 5 7 7 15 4 12 -5 14 -2 8 12 -5 16 -4 17 8 8 8 -7 23
-14 34 -17z m32 -19 c-3 -8 -6 -5 -6 6 -1 11 2 17 5 13 3 -3 4 -12 1 -19z m-7
-23 c0 -6 -73 -25 -78 -20 -2 2 11 8 29 14 41 11 49 12 49 6z m-20 -69 c0 -12
-5 -7 -19 24 -11 24 -11 24 3 6 9 -11 16 -24 16 -30z m-30 -149 c0 -2 -19 -21
-42 -42 l-43 -40 40 43 c36 39 45 47 45 39z m167 -63 c-3 -3 -12 -4 -19 -1 -8
3 -5 6 6 6 11 1 17 -2 13 -5z m-247 -27 c0 -2 -10 -12 -22 -23 l-23 -19 19 23
c18 21 26 27 26 19z m-40 -50 c0 -2 -12 -14 -27 -28 l-28 -24 24 28 c23 25 31
32 31 24z m-16 -89 c-32 -35 -63 -65 -69 -67 -5 -2 19 26 55 63 35 36 66 66
69 66 2 0 -23 -28 -55 -62z m-44 19 c0 -2 -10 -12 -22 -23 l-23 -19 19 23 c18
21 26 27 26 19z m-40 -51 c0 -2 -8 -10 -17 -17 -16 -13 -17 -12 -4 4 13 16 21
21 21 13z"/>
<path d="M4091 3054 c0 -11 3 -14 6 -6 3 7 2 16 -1 19 -3 4 -6 -2 -5 -13z"/>
<path d="M4103 2985 c0 -27 2 -38 4 -22 2 15 2 37 0 50 -2 12 -4 0 -4 -28z"/>
<path d="M1041 2914 c0 -11 3 -14 6 -6 3 7 2 16 -1 19 -3 4 -6 -2 -5 -13z"/>
<path d="M1120 2775 c-14 -8 -20 -14 -15 -14 6 0 21 6 35 14 14 8 21 14 15 14
-5 0 -21 -6 -35 -14z"/>
<path d="M1140 2759 c-41 -19 -43 -22 -27 -34 18 -13 86 -30 93 -23 6 6 -8 78
-15 78 -3 0 -26 -10 -51 -21z"/>
<path d="M4057 2701 c-4 -18 -6 -66 -6 -105 l2 -71 8 80 c5 44 8 91 6 105 -2
22 -3 21 -10 -9z"/>
<path d="M1026 2689 c-18 -36 -21 -65 -7 -73 14 -9 30 18 33 57 3 49 -7 55
-26 16z"/>
<path d="M3913 2679 c-1 -12 3 -16 13 -12 18 6 18 19 1 26 -7 3 -13 -3 -14
-14z"/>
<path d="M4090 2677 c0 -19 40 -68 50 -62 5 3 10 1 12 -5 2 -6 14 -12 26 -15
21 -4 22 -2 11 11 -7 9 -24 20 -37 25 -13 5 -20 14 -17 19 4 6 3 10 -2 9 -19
-3 -34 2 -28 10 3 5 1 12 -5 16 -5 3 -10 0 -10 -8z m41 -44 c13 -16 12 -17 -3
-4 -17 13 -22 21 -14 21 2 0 10 -8 17 -17z"/>
<path d="M976 2661 c-10 -11 -13 -21 -7 -25 10 -7 24 10 27 32 3 16 0 15 -20
-7z"/>
<path d="M3000 2666 c0 -2 8 -10 18 -17 15 -13 16 -12 3 4 -13 16 -21 21 -21
13z"/>
<path d="M900 2615 l-45 -23 27 -11 c15 -6 34 -8 42 -5 8 3 17 1 21 -5 10 -17
41 -13 56 6 12 15 12 16 -1 8 -13 -7 -13 -6 -2 7 10 12 9 18 -3 28 -8 7 -15 9
-15 6 0 -4 -8 -2 -17 3 -13 6 -31 2 -63 -14z"/>
<path d="M1246 2600 c11 -42 24 -73 29 -68 3 3 -4 25 -15 49 -11 24 -17 33
-14 19z"/>
<path d="M4237 2609 c7 -7 15 -10 18 -7 3 3 -2 9 -12 12 -14 6 -15 5 -6 -5z"/>
<path d="M1066 2272 c2 -20 6 -51 8 -68 3 -17 31 -98 64 -180 33 -82 63 -165
67 -184 4 -19 10 -37 14 -40 3 -3 19 -30 35 -60 20 -39 23 -50 11 -40 -10 8
-24 30 -32 48 -22 53 -25 36 -3 -20 11 -29 20 -54 20 -56 0 -2 5 0 12 4 7 4 8
3 4 -4 -8 -13 70 -133 82 -129 5 1 40 -30 78 -68 38 -39 80 -78 94 -87 16 -11
20 -17 10 -17 -8 -1 -52 37 -97 83 -46 46 -83 80 -83 74 0 -6 36 -46 81 -90
l81 -80 51 6 c29 4 54 9 56 12 3 2 -29 39 -70 81 -52 54 -62 67 -32 44 23 -17
61 -54 84 -82 23 -28 53 -55 66 -60 13 -5 23 -13 23 -19 0 -6 -11 -4 -24 5
-18 12 -37 14 -75 9 -73 -10 -68 -28 11 -43 l43 -9 -35 -2 c-33 -2 -33 -3 -10
-10 35 -11 62 -12 55 -1 -3 5 5 13 17 17 31 9 39 24 26 48 -10 19 -10 20 6 7
11 -9 14 -21 10 -35 -5 -17 -4 -19 7 -8 11 11 13 74 11 340 -3 321 -3 327 -24
342 -12 8 -85 45 -162 81 -78 36 -203 96 -279 133 -76 38 -149 69 -162 70 -13
0 -21 4 -19 7 2 4 -2 9 -10 12 -10 4 -13 -3 -10 -31z m108 -128 c13 -38 27
-78 31 -89 6 -14 5 -17 -2 -10 -6 6 -21 42 -33 80 -13 39 -25 77 -28 85 -3 8
-2 12 1 9 4 -3 18 -37 31 -75z m40 -175 c20 -47 36 -93 36 -100 0 -19 75 -163
108 -209 14 -19 44 -54 66 -77 22 -24 37 -45 34 -49 -4 -3 -33 27 -67 68 -63
77 -144 220 -156 277 -4 18 -18 59 -32 90 -35 79 -46 108 -35 96 5 -5 26 -49
46 -96z m16 26 c0 -5 -5 -3 -10 5 -5 8 -10 20 -10 25 0 6 5 3 10 -5 5 -8 10
-19 10 -25z m24 -63 c17 -50 98 -180 164 -262 20 -25 88 -99 151 -166 101
-105 98 -102 -24 20 -171 172 -275 317 -310 434 -13 44 4 21 19 -26z m121 -32
c-3 -6 -21 -17 -38 -26 -36 -19 -31 -9 10 17 34 21 36 22 28 9z m-145 -60 c6
-11 8 -20 6 -20 -3 0 -10 9 -16 20 -6 11 -8 20 -6 20 3 0 10 -9 16 -20z m75
-186 c9 -15 12 -23 6 -20 -11 7 -35 46 -28 46 3 0 12 -12 22 -26z m35 -75 c15
-28 5 -23 -15 7 -9 15 -12 23 -6 20 6 -4 16 -16 21 -27z m87 -45 c32 -31 81
-74 110 -95 28 -21 55 -44 59 -51 19 -30 -178 130 -215 174 -36 44 -18 33 46
-28z"/>
<path d="M1032 2258 c-18 -69 -24 -161 -12 -178 9 -12 10 -11 6 5 -3 11 -2 36
3 55 l7 35 7 -47 c8 -60 46 -169 81 -233 32 -58 29 -48 -13 56 -30 76 -66 207
-58 215 2 3 16 -37 30 -88 28 -103 120 -308 110 -248 -3 19 -21 73 -40 120
-58 143 -93 250 -93 288 0 59 -15 70 -28 20z m15 -70 c-3 -8 -6 -5 -6 6 -1 11
2 17 5 13 3 -3 4 -12 1 -19z"/>
<path d="M4110 2241 c0 -6 4 -13 10 -16 6 -3 7 1 4 9 -7 18 -14 21 -14 7z"/>
<path d="M1031 2044 c0 -11 3 -14 6 -6 3 7 2 16 -1 19 -3 4 -6 -2 -5 -13z"/>
<path d="M3927 1827 c-3 -8 1 -14 8 -14 7 0 11 6 8 14 -3 7 -6 13 -8 13 -2 0
-5 -6 -8 -13z"/>
<path d="M1208 1715 c-4 -4 5 -25 19 -46 31 -47 42 -52 15 -6 -11 17 -21 38
-23 45 -3 7 -7 10 -11 7z"/>
<path d="M3909 1633 c-13 -16 -12 -17 4 -4 16 13 21 21 13 21 -2 0 -10 -8 -17
-17z"/>
<path d="M1266 1602 c-3 -5 1 -9 9 -9 8 0 12 4 9 9 -3 4 -7 8 -9 8 -2 0 -6 -4
-9 -8z"/>
<path d="M3767 1573 c-4 -3 -7 -11 -7 -17 0 -6 5 -5 12 2 6 6 9 14 7 17 -3 3
-9 2 -12 -2z"/>
<path d="M3794 1513 c-48 -61 -50 -71 -4 -27 23 23 41 47 38 54 -2 6 -17 -6
-34 -27z"/>
<path d="M1280 1486 c0 -2 8 -10 18 -17 15 -13 16 -12 3 4 -13 16 -21 21 -21
13z"/>
<path d="M1365 1360 c10 -11 20 -20 23 -20 3 0 -3 9 -13 20 -10 11 -20 20 -23
20 -3 0 3 -9 13 -20z"/>
<path d="M3415 1348 c-9 -14 -11 -24 -5 -26 6 -2 7 -9 4 -14 -4 -6 -2 -8 4 -5
5 4 33 2 61 -5 39 -9 57 -9 77 1 36 16 17 37 -44 46 -26 4 -55 11 -64 16 -13
7 -21 3 -33 -13z"/>
<path d="M1420 1316 c0 -2 8 -10 18 -17 15 -13 16 -12 3 4 -13 16 -21 21 -21
13z"/>
<path d="M3458 1284 c17 -8 32 -19 32 -25 0 -8 5 -7 16 2 14 11 10 14 -28 26
-55 16 -62 15 -20 -3z"/>
<path d="M1776 1272 c-3 -3 5 -20 19 -38 29 -38 32 -52 8 -33 -11 9 -10 3 6
-18 12 -18 25 -33 29 -33 3 0 1 5 -6 12 -17 17 -15 24 8 25 11 1 18 -2 15 -7
-3 -6 0 -7 8 -4 8 3 18 0 23 -7 5 -8 3 -10 -6 -4 -9 5 -11 4 -6 -3 4 -7 27
-23 52 -38 53 -31 57 -38 9 -18 -61 25 -52 15 23 -27 68 -37 195 -75 214 -63
4 3 8 11 8 19 0 7 6 15 13 18 6 2 -4 7 -23 12 -19 4 -61 18 -93 32 -32 13 -66
22 -75 19 -9 -3 -37 6 -62 19 -25 13 -41 24 -37 25 4 0 22 -7 38 -16 17 -8 33
-13 36 -10 3 3 -34 25 -83 49 -61 29 -90 49 -92 62 -3 18 -3 19 10 3 17 -21
237 -131 303 -151 85 -26 95 -26 128 -6 l32 19 -28 0 c-16 0 -92 25 -170 56
-208 82 -295 113 -301 106z m344 -229 c46 -5 52 -13 9 -13 -19 0 -53 9 -76 19
-23 11 -44 17 -47 13 -3 -3 -6 0 -6 7 0 7 -4 10 -8 7 -5 -3 -9 0 -9 7 0 8 17
4 51 -12 28 -13 67 -26 86 -28z"/>
<path d="M3190 1220 c-68 -28 -179 -66 -245 -86 -66 -20 -126 -41 -134 -47
-12 -9 -13 -9 -7 1 4 6 2 12 -3 12 -6 0 -11 -13 -11 -30 0 -16 0 -32 0 -35 0
-3 2 -5 5 -5 3 0 18 -6 35 -15 41 -21 78 -19 183 11 103 29 210 81 200 97 -3
6 -1 7 5 3 10 -6 125 74 118 82 -4 3 -73 -34 -91 -49 -18 -13 -178 -80 -182
-75 -6 6 18 18 97 50 75 30 192 106 187 121 -7 20 -34 14 -157 -35z m133 25
c-54 -38 -355 -185 -378 -185 -23 0 -25 -3 -19 -27 l6 -28 -17 30 c-9 16 -24
36 -35 44 -17 14 -15 16 38 33 68 21 93 23 37 2 -46 -17 -60 -28 -51 -42 13
-21 201 58 351 146 68 40 112 57 68 27z m-273 -169 c0 -2 -7 -7 -16 -10 -8 -3
-12 -2 -9 4 6 10 25 14 25 6z"/>
<path d="M3780 1237 c-19 -17 -55 -49 -80 -71 l-45 -38 46 32 c42 28 130 110
119 110 -3 0 -21 -15 -40 -33z"/>
<path d="M1295 1240 c10 -11 20 -20 23 -20 3 0 -3 9 -13 20 -10 11 -20 20 -23
20 -3 0 3 -9 13 -20z"/>
<path d="M3850 1205 c-24 -25 -42 -45 -39 -45 3 0 25 20 49 45 24 25 42 45 39
45 -3 0 -25 -20 -49 -45z"/>
<path d="M3299 1143 c-8 -9 -27 -24 -44 -35 -16 -10 -24 -18 -17 -18 12 0 93
69 81 70 -4 0 -13 -7 -20 -17z"/>
<path d="M3343 1145 c4 -8 1 -17 -5 -21 -7 -5 -8 -2 -3 5 4 7 -16 -3 -44 -22
-28 -20 -61 -39 -72 -42 -11 -4 -19 -9 -16 -11 2 -2 43 14 91 36 75 36 84 43
72 56 -19 18 -30 18 -23 -1z"/>
<path d="M2699 1113 c-13 -16 -12 -17 4 -4 16 13 21 21 13 21 -2 0 -10 -8 -17
-17z"/>
<path d="M3734 1098 l-19 -23 23 19 c21 18 27 26 19 26 -2 0 -12 -10 -23 -22z"/>
<path d="M2649 1058 c-12 -23 -12 -23 10 -4 23 21 26 26 11 26 -5 0 -15 -10
-21 -22z"/>
<path d="M3684 1058 l-19 -23 23 19 c21 18 27 26 19 26 -2 0 -12 -10 -23 -22z"/>
<path d="M2817 999 c7 -7 15 -10 18 -7 3 3 -2 9 -12 12 -14 6 -15 5 -6 -5z"/>
<path d="M2635 958 c-22 -22 -30 -34 -18 -26 21 13 69 68 61 68 -2 0 -22 -19
-43 -42z"/>
<path d="M2968 983 c6 -2 18 -2 25 0 6 3 1 5 -13 5 -14 0 -19 -2 -12 -5z"/>
<path d="M2893 973 c9 -2 23 -2 30 0 6 3 -1 5 -18 5 -16 0 -22 -2 -12 -5z"/>
</g>
</svg>
